<svg viewBox="0 0 44 44" xmlns="http://www.w3.org/2000/svg" width="44" height="44" fill="none"><path d="M0 0h44v44H0z"/><path d="M22.917 37.584h11.917v-6.417M22.917 6.417h11.917v6.417M22.917 31.39v8.944L9.167 35.4v-4.234m13.75-18.357V3.667L9.167 8.6v4.209" stroke="#239EE8" stroke-linecap="round" stroke-linejoin="round" stroke-width="1.5"/><rect width="36.667" height="18.333" x="3.667" y="12.833" rx="2"/><rect width="36.667" height="18.333" x="3.667" y="12.833" rx="2" stroke="#239EE8" stroke-linecap="round" stroke-linejoin="round" stroke-width="1.5"/><path d="M9.167 17.417v9.167m10.083-9.166v9.167" stroke="#239EE8" stroke-linecap="round" stroke-width="1.5"/><path d="M32.083 18.333v7.334m-2.75-7.334h5.5m-25.666-.916h2.75a2.75 2.75 0 1 1 0 5.5h-2.75m10.083-5.5H22a2.75 2.75 0 1 1 0 5.5h-2.75" stroke="#239EE8" stroke-linecap="round" stroke-linejoin="round" stroke-width="1.5"/></svg>