<svg viewBox="0 0 44 44" xmlns="http://www.w3.org/2000/svg" xmlns:xlink="http://www.w3.org/1999/xlink" width="44.000000" height="44.000000" fill="none">
	<defs>
		<linearGradient id="paint_linear_6" x1="21.7413483" x2="21.7413483" y1="4.22363281" y2="38.8305321" gradientUnits="userSpaceOnUse">
			<stop stop-color="rgb(35,158,232)" offset="0" stop-opacity="1" />
			<stop stop-color="rgb(164,54,164)" offset="1" stop-opacity="1" />
		</linearGradient>
		<linearGradient id="paint_linear_7" x1="5.17383337" x2="5.17383337" y1="0" y2="1" gradientUnits="userSpaceOnUse">
			<stop stop-color="rgb(35,158,232)" offset="0" stop-opacity="1" />
			<stop stop-color="rgb(164,54,164)" offset="1" stop-opacity="1" />
		</linearGradient>
	</defs>
	<rect id="Special effects" width="44.000000" height="44.000000" x="0.000000" y="0.000000" />
	<path id="path" d="M22.8709 38.8305L27.8811 27.839L39.512 24.4295L30.5596 16.2893L30.8965 4.22363L20.3535 10.1843L8.9308 6.13678L11.3673 17.9609L3.9707 27.525L16.0197 28.872L22.8709 38.8305Z" fill="rgb(0,0,0)" fill-opacity="0" fill-rule="nonzero" />
	<path id="path" d="M27.8811 27.839L39.512 24.4295L30.5596 16.2893L30.8965 4.22363L20.3535 10.1843L8.9308 6.13678L11.3673 17.9609L3.9707 27.525L16.0197 28.872L22.8709 38.8305L27.8811 27.839Z" fill-rule="nonzero" stroke="url(#paint_linear_6)" stroke-linecap="round" stroke-linejoin="round" stroke-width="1.5" />
	<path id="path" d="M0 0L10.3477 0" stroke="url(#paint_linear_7)" stroke-linecap="round" stroke-linejoin="round" stroke-width="1.5" transform="matrix(0.708687,0.705523,-0.705523,0.708687,33.1631,33.0488)" />
</svg>
