<svg viewBox="0 0 44 44" xmlns="http://www.w3.org/2000/svg" width="44" height="44" fill="none"><defs><linearGradient id="a" x1="16.5" x2="16.5" y1="11" y2="23.833" gradientUnits="userSpaceOnUse"><stop stop-color="#239EE8" offset="0"/><stop stop-color="#A436A4" offset="1"/></linearGradient><linearGradient id="b" x1="24.75" x2="24.75" y1="22.917" y2="39.417" gradientUnits="userSpaceOnUse"><stop stop-color="#239EE8" offset="0"/><stop stop-color="#A436A4" offset="1"/></linearGradient><linearGradient id="c" x1="22" x2="22" y1="19.25" y2="26.583" gradientUnits="userSpaceOnUse"><stop stop-color="#239EE8" offset="0"/><stop stop-color="#A436A4" offset="1"/></linearGradient><linearGradient id="d" x1="27.5" x2="27.5" y1="19.25" y2="26.583" gradientUnits="userSpaceOnUse"><stop stop-color="#239EE8" offset="0"/><stop stop-color="#A436A4" offset="1"/></linearGradient><linearGradient id="e" x1="33" x2="33" y1="19.25" y2="26.583" gradientUnits="userSpaceOnUse"><stop stop-color="#239EE8" offset="0"/><stop stop-color="#A436A4" offset="1"/></linearGradient><linearGradient id="f" x1="16.5" x2="16.5" y1="4.583" y2="13.75" gradientUnits="userSpaceOnUse"><stop stop-color="#239EE8" offset="0"/><stop stop-color="#A436A4" offset="1"/></linearGradient></defs><path d="M0 0h44v44H0z"/><path d="M13.75 23.833V13.75a2.75 2.75 0 1 1 5.5 0v10.083" stroke="url(#a)" stroke-linecap="round" stroke-linejoin="round" stroke-width="1.5"/><path d="M35.75 22.917v5.958c0 5.822-4.72 10.542-10.542 10.542h-.916c-5.822 0-10.542-4.72-10.542-10.542v-5.958" stroke="url(#b)" stroke-linecap="round" stroke-linejoin="round" stroke-width="1.5"/><path d="M19.25 26.583V22a2.75 2.75 0 1 1 5.5 0v4.583" stroke="url(#c)" stroke-linecap="round" stroke-linejoin="round" stroke-width="1.5"/><path d="M24.75 26.583V22a2.75 2.75 0 1 1 5.5 0v4.583" stroke="url(#d)" stroke-linecap="round" stroke-linejoin="round" stroke-width="1.5"/><path d="M30.25 26.583V22a2.75 2.75 0 1 1 5.5 0v4.583" stroke="url(#e)" stroke-linecap="round" stroke-linejoin="round" stroke-width="1.5"/><path d="M25.666 13.75a9.14 9.14 0 0 0-1.795-5.45A9.15 9.15 0 0 0 16.5 4.583 9.15 9.15 0 0 0 9.128 8.3a9.14 9.14 0 0 0-1.795 5.45" stroke="url(#f)" stroke-linecap="round" stroke-width="1.5"/></svg>
