<svg viewBox="0 0 44 44" xmlns="http://www.w3.org/2000/svg" width="44" height="44" fill="none"><defs><linearGradient id="a" x1="8.263" x2="8.263" y1="0" y2="1" gradientUnits="userSpaceOnUse"><stop stop-color="#A436A4" offset="0"/><stop stop-color="#2EC5B6" offset="1"/></linearGradient><linearGradient id="b" x1="8.263" x2="8.263" y1="0" y2="1" gradientUnits="userSpaceOnUse"><stop stop-color="#A436A4" offset="0"/><stop stop-color="#2EC5B6" offset="1"/></linearGradient><linearGradient id="c" x1="22" x2="22" y1="24.75" y2="25.75" gradientUnits="userSpaceOnUse"><stop stop-color="#A436A4" offset="0"/><stop stop-color="#2EC5B6" offset="1"/></linearGradient><linearGradient id="d" x1="5.976" x2="5.976" y1="0" y2="1" gradientUnits="userSpaceOnUse"><stop stop-color="#A436A4" offset="0"/><stop stop-color="#2EC5B6" offset="1"/></linearGradient><linearGradient id="e" x1="7.805" x2="7.805" y1="0" y2="1" gradientUnits="userSpaceOnUse"><stop stop-color="#A436A4" offset="0"/><stop stop-color="#2EC5B6" offset="1"/></linearGradient><linearGradient id="f" x1="7.912" x2="7.912" y1="0" y2="1" gradientUnits="userSpaceOnUse"><stop stop-color="#A436A4" offset="0"/><stop stop-color="#2EC5B6" offset="1"/></linearGradient><linearGradient id="g" x1="5.345" x2="5.345" y1="0" y2="1" gradientUnits="userSpaceOnUse"><stop stop-color="#A436A4" offset="0"/><stop stop-color="#2EC5B6" offset="1"/></linearGradient><linearGradient id="h" x1="5.958" x2="5.958" y1="0" y2="1" gradientUnits="userSpaceOnUse"><stop stop-color="#A436A4" offset="0"/><stop stop-color="#2EC5B6" offset="1"/></linearGradient><linearGradient id="i" x1="7.912" x2="7.912" y1="0" y2="1" gradientUnits="userSpaceOnUse"><stop stop-color="#A436A4" offset="0"/><stop stop-color="#2EC5B6" offset="1"/></linearGradient><linearGradient id="j" x1="5.345" x2="5.345" y1="0" y2="1" gradientUnits="userSpaceOnUse"><stop stop-color="#A436A4" offset="0"/><stop stop-color="#2EC5B6" offset="1"/></linearGradient><linearGradient id="k" x1="7.805" x2="7.805" y1="0" y2="1" gradientUnits="userSpaceOnUse"><stop stop-color="#A436A4" offset="0"/><stop stop-color="#2EC5B6" offset="1"/></linearGradient><linearGradient id="l" x1="5.976" x2="5.976" y1="0" y2="1" gradientUnits="userSpaceOnUse"><stop stop-color="#A436A4" offset="0"/><stop stop-color="#2EC5B6" offset="1"/></linearGradient><linearGradient id="m" x1="22" x2="22" y1="3.667" y2="40.334" gradientUnits="userSpaceOnUse"><stop stop-color="#A436A4" offset="0"/><stop stop-color="#2EC5B6" offset="1"/></linearGradient></defs><path d="M0 0h44v44H0z"/><path d="M0 0h16.525" stroke="url(#a)" stroke-linecap="round" stroke-linejoin="round" stroke-width="1.5" transform="rotate(-70.56 39.503 4.62)"/><path d="M0 0h16.525" stroke="url(#b)" stroke-linecap="round" stroke-linejoin="round" stroke-width="1.5" transform="rotate(70.56 -9.24 24.036)"/><path d="M16.5 24.75h11" stroke="url(#c)" stroke-linecap="round" stroke-linejoin="round" stroke-width="1.5"/><path d="M0 0h11.952" stroke="url(#d)" stroke-linecap="round" stroke-linejoin="round" stroke-width="1.5" transform="rotate(32.471 -28.746 59.593)"/><path d="M0 0h15.61" stroke="url(#e)" stroke-linecap="round" stroke-linejoin="round" stroke-width="1.5" transform="rotate(-49.764 40.432 -17.271)"/><path d="M0 0h15.824" stroke="url(#f)" stroke-linecap="round" stroke-linejoin="round" stroke-width="1.5" transform="rotate(-10.008 99.986 -117.838)"/><path d="M0 0h10.69" stroke="url(#g)" stroke-linecap="round" stroke-linejoin="round" stroke-width="1.5" transform="rotate(59.036 -2.761 27.22)"/><path d="M0 0h11.917" stroke="url(#h)" stroke-linecap="round" stroke-linejoin="round" stroke-width="1.5" transform="rotate(90 9.167 12.833)"/><path d="M0 0h15.824" stroke="url(#i)" stroke-linecap="round" stroke-linejoin="round" stroke-width="1.5" transform="rotate(10.008 -70.073 43.06)"/><path d="M0 0h10.69" stroke="url(#j)" stroke-linecap="round" stroke-linejoin="round" stroke-width="1.5" transform="rotate(-59.036 30.107 -2.196)"/><path d="M0 0h15.61" stroke="url(#k)" stroke-linecap="round" stroke-linejoin="round" stroke-width="1.5" transform="rotate(49.764 -10.626 13.334)"/><path d="M0 0h11.952" stroke="url(#l)" stroke-linecap="round" stroke-linejoin="round" stroke-width="1.5" transform="rotate(-32.471 56.723 4.565)"/><path d="M37.877 12.834 22 3.667 6.123 12.834v18.333L22 40.334l15.877-9.167z"/><path d="M22 3.667 6.123 12.834v18.333L22 40.334l15.877-9.167V12.834z" stroke="url(#m)" stroke-linecap="round" stroke-linejoin="round" stroke-width="1.5"/></svg>
