<svg viewBox="0 0 44 44" xmlns="http://www.w3.org/2000/svg" width="44" height="44" fill="none"><defs><linearGradient id="a" x1="11" x2="11" y1="25.667" y2="38.5" gradientUnits="userSpaceOnUse"><stop stop-color="#2EC5B6" offset="0"/><stop stop-color="#746CF5" offset="1"/></linearGradient><linearGradient id="b" x1="33" x2="33" y1="25.667" y2="38.5" gradientUnits="userSpaceOnUse"><stop stop-color="#2EC5B6" offset="0"/><stop stop-color="#746CF5" offset="1"/></linearGradient><linearGradient id="c" x1="7.333" x2="7.333" y1="5.5" y2="31.167" gradientUnits="userSpaceOnUse"><stop stop-color="#2EC5B6" offset="0"/><stop stop-color="#746CF5" offset="1"/></linearGradient><linearGradient id="d" x1="36.667" x2="36.667" y1="5.5" y2="31.167" gradientUnits="userSpaceOnUse"><stop stop-color="#2EC5B6" offset="0"/><stop stop-color="#746CF5" offset="1"/></linearGradient><linearGradient id="e" x1="22" x2="22" y1="26.583" y2="31.166" gradientUnits="userSpaceOnUse"><stop stop-color="#2EC5B6" offset="0"/><stop stop-color="#746CF5" offset="1"/></linearGradient></defs><path d="M0 0h44v44H0z"/><circle cx="11" cy="32.084" r="6.417"/><circle cx="11" cy="32.084" r="6.417" stroke="url(#a)" stroke-linecap="round" stroke-linejoin="round" stroke-width="1.5"/><circle cx="33" cy="32.084" r="6.417"/><circle cx="33" cy="32.084" r="6.417" stroke="url(#b)" stroke-linecap="round" stroke-linejoin="round" stroke-width="1.5"/><path d="M4.583 31.167V9.977c0-1.276 0-1.914.346-2.394S5.88 6.9 7.09 6.498l2.993-.998" stroke="url(#c)" stroke-linecap="round" stroke-linejoin="round" stroke-width="1.5"/><path d="M39.417 31.167V9.977c0-1.276 0-1.914-.346-2.394S38.12 6.9 36.91 6.498L33.917 5.5" stroke="url(#d)" stroke-linecap="round" stroke-linejoin="round" stroke-width="1.5"/><path d="M26.584 31.166a4.583 4.583 0 0 0-9.167 0" stroke="url(#e)" stroke-linecap="round" stroke-linejoin="round" stroke-width="1.5"/></svg>