<svg viewBox="0 0 44 44" xmlns="http://www.w3.org/2000/svg" width="44" height="44" fill="none"><defs><linearGradient id="a" x1="22" x2="22" y1="3.667" y2="40.334" gradientUnits="userSpaceOnUse"><stop stop-color="#BF52E8" offset="0"/><stop stop-color="#E6A823" offset="1"/></linearGradient></defs><path d="M0 0h44v44H0z"/><path d="M3.667 22V11h8.25V9.167a5.5 5.5 0 1 1 11 0V11h8.25v11h3.667a5.5 5.5 0 0 1 0 11h-3.667v7.334h-27.5V33h3.667a5.5 5.5 0 1 0 0-11z"/><path d="M3.667 11h8.25V9.167a5.5 5.5 0 1 1 11 0V11h8.25v11h3.667a5.5 5.5 0 0 1 0 11h-3.667v7.334h-27.5V33h3.667a5.5 5.5 0 1 0 0-11H3.667z" stroke="url(#a)" stroke-linejoin="round" stroke-width="1.5"/></svg>
