<svg xmlns="http://www.w3.org/2000/svg" xml:space="preserve" width="504.053" height="503.539" version="1.0" style="shape-rendering:geometricPrecision;text-rendering:geometricPrecision;image-rendering:optimizeQuality;fill-rule:evenodd;clip-rule:evenodd" viewBox="0 0 12755.3 12742.3"><defs><style>.fil6{fill:#dc2f02}.fil1{fill:#e85d04}.fil4{fill:#f38b05}.fil5{fill:#f38c06}.fil3{fill:#f8a206}.fil0{fill:#feb807}</style></defs><g id="Слой_x0020_1"><g id="_2635630923424"><path class="fil0" d="M5553.84 452.92c-97.83 608.53-946.39 2074.83-1393.01 2614.77l-624.12 691.5c-84.33 72.26-70.98 105.96-347.93 335.63-65.08 53.96-106 100.43-173.95 154.57-748.11 595.99-1825.55 1281.37-2784.12 1498.95-90.11 59.58-129.93 77.93-187.22 185.06-59.41 111.08-40.67 186.03-40.67 339.03 0 301.88 16.65 425.72 253.18 513.3 411.47 80.8 974.33-224.35 1344.67-281.19 39.41-29.06 5.32-8.35 66.24-35.13l628.02-258.55c180.78-84.83 534.75-251.27 666.42-366.16l22.33-6.52c195.61-84.89 537.55-333.8 719.75-470.19l220.49-160.81c68.61-86.65 177.53-150.19 255.22-224.72 107.77-103.41 154.38-142.49 250.67-229.45 78.29-70.7 405.93-402.22 433.2-480.22 5.32-5.99 12.46-12.89 16.72-17.25l132.12-134.35c46.66-53.52 58.79-77.88 112.75-140.88 79.11-92.35 152.6-216.42 240.82-294.54 98.76-179.98 243.31-362.38 357.66-548.7 116.65-190.06 218.59-383.27 323.49-588.96 100.84-205.54 180.72-367.85 276.92-582.16 82.92-184.73 153.88-439.34 240.4-602.28 43.91-150.59 101.02-309.43 150.81-474.41 22.76-75.41 108.05-431.78 119.87-456.71-35.76-82.88-14.81-108.36-70.57-187.49-34.83-49.42-90.1-99.21-147.51-130.72-115.36-63.33-674.55-208.91-877.77-23.5-109.66 100.05-125.53 228.16-184.9 362.07z"/><path class="fil1" d="M4319.59 5564.58c219.05 338.7 432.89 437.13 745.1 1162.07 570.6 1324.9 660.39 2679.81 567.63 4120.05-18.42 285.99-73.36 612.36-74.49 891.02 124.22 251.91 357.55 124.58 643.6 125.92 128.96.6 296.16 8.48 385.58-19.25 162.43-50.38 136.86-103.64 196.96-235.52-34.27-53.43-13.37-140.12-5.73-203.75l60.94-698.99c-20.25-204.49 54.64-974 40.06-1347.82-7.8-199.91-9.03-477.84-31.49-668.85-18.9-160.68-64.87-521.07-58.66-652.7-16.95-274.58-235.59-1119.63-220.77-1228.99-78.46-54.89-173.35-432.13-251.09-626.07-79.16-197.46-194.08-396.23-269.36-591.91-69.7-72.56-120.73-189.14-175.71-278.47-52.18-84.75-115.55-176.35-175.27-255.13-112.34-148.16-277.32-362.24-403.38-452.96l-973.92 961.36z"/><path d="M4382.26 554.12c-157.09 400.52-604.34 1163.05-838.4 1445.58-36.31 83.44-549.2 762.14-689.87 813.79-15.4 71.09-125.06 140.36-173.66 190.38-63.55 65.44-103.49 122.55-171.77 181.91-124.1 107.88-244.22 199.19-380.19 323.64-410.59 289.07-789.34 602.23-1268.72 836.18-141.44 69.03-402.91 240.35-467.18 180.97-62.84 146.3-138.44 39.61-202.72 212.08-31.94 85.69-51.13 254.43-70.94 359.2C47.74 5473.79-29.48 5652 230.69 5748.32c958.57-217.58 2036.01-902.96 2784.12-1498.95 67.95-54.13 108.88-100.61 173.95-154.57 276.95-229.67 263.6-263.37 347.93-335.63l624.12-691.5c446.62-539.94 1295.18-2006.25 1393.01-2614.77-51.7-348.34-252.77-441.94-617.29-379.91-426.26 72.54-398.27 157.52-554.29 481.12z" style="fill:#faa306"/><path class="fil1" d="m10984.14 3792.81-19.42 25.31c-427.99 854.29-873.78 1412.71-1512.98 1908.42-287.22 222.75-687.17 457.54-1073.59 622.21-247.21 105.34-1031.65 389.7-1308.71 376.71l-42.86 26.42c65.26 381.46 192.12 866.24 189.55 1261.36l931.78-173.5c209.52-61.14 399.5-106.58 603.43-182.23 194.12-72 383.78-171.87 557.95-227.21l-2.63 432.04 13.58-.53 17.16-450.7c139.82-108.69 382.2-212.57 559.91-327.42 92.75-59.94 166.7-111.61 255.97-174.32 88.55-62.21 176.75-156.03 266.6-182.81l44.34 472.78c217.17-59.32 751.49-660.54 946.09-905.34l130.48-159.06c0-207.28-43.84-653.75 5.93-765.45 170.39-382.42 263.42-491.97 66.33-1016.39-83.41-221.93-129.8-482.14-289.67-570.95-141.02-78.33-210.09-19.43-339.23 10.65z"/><path class="fil3" d="M3372.53 6278.48c56.31 143.2 380.21 527.79 371.79 688.4 83.5 47.22 88.17 103.73 129.6 193.79 35.31 76.78 58.06 132.4 89.73 213.73 111.83 287.19 424.4 1195.46 341.98 1428.75 115.58 107.74 142.19 1194.39 144.45 1314.45 6.68 355.4 16.12 1065.41-56.88 1392.39 30.62 141.64 59.44 193.84 143.81 273.39 92.05 86.79 148.04 108.1 322.96 107.18 444.93-2.34 582.21 63.09 697.87-152.86 1.13-278.65 56.07-605.02 74.49-891.02 92.76-1440.24 2.97-2795.15-567.63-4120.05-312.22-724.93-526.05-823.37-745.1-1162.07l-17.66 12.28c-161.22 100.79-308.71 239-463.42 355.68-107.31 80.92-389.03 252.69-465.99 345.94z"/><path class="fil0" d="M10269.3 2426.49c-204.4 324.26-402.73 879.97-656 1135.53-93.53 173.78-245.49 316.15-375.45 457.57-131.78 143.39-268.42 275.04-426.58 404.53l-75.03 57.83c-36.28 26.51-32.59 23.71-70.97 53.29-273.07 210.43-786.46 531.61-1090.98 624.51l-460.43 176c-146.5 48.8-366.91 74.47-488.8 152.31 56.29 237.32 247.54 647.29 350.69 1094.92 24.43 106.01 6.37 120.48 93.7 142.48 277.06 13 1061.5-271.37 1308.71-376.71 386.41-164.67 786.36-399.46 1073.59-622.21 639.2-495.72 1084.99-1054.13 1512.98-1908.42-7.77-33.45-14.61-25.31 19.42-25.31 90.06-386.55 335.69-446.71-126.51-1138.6-36.11-54.08-89.6-147.68-132.66-196.27-133.12-150.24-300.78-120.61-455.68-31.45"/><path class="fil1" d="M6563.9 1363.67c141.86-51.23 480.84 129.62 625.55 176.58-63.79 304.51-503.1 1000.11-576.37 1216.88l-566.5-209.02c-104.9 205.69-206.85 398.9-323.49 588.96-114.35 186.32-258.9 368.72-357.66 548.7l507.67 175.55 26.44 3.33c42.66-103.32 104.97-159.45 169.23-255.43l538.1-839.86c466.13 115.54 1131.47 646.88 1488.18 926.89l580.01 608.98c16.4 21.76 28.39 45.26 55.71 70.64 42.75 39.7 17.85 31.92 80.5 48.25 158.15-129.49 294.8-261.14 426.58-404.53 129.97-141.43 281.93-283.79 375.45-457.57-23.93-243.69-832.37-1023.46-1032.47-1186.95-694.14-567.13-1161.88-674.47-1369.66-835.59l343.36-934.75c-108.91-58.27-575.57-180.15-719.95-172.18-11.82 24.93-97.11 381.3-119.87 456.71-49.79 164.97-106.9 323.82-150.81 474.41m4702.3 6426.89 407.8 372.83c116.2 116.8 312.91 290.74 398.88 410.79 218.49 305.1 341.86 775.05 222.58 1261.46-115.55 471.21-411.27 670.16-522.56 1071.47-48.49 174.87 25.71 925.2-738.01 881.74-342.38-19.48-891.28-178.76-1417.04-177.69-959.99 1.94-1693.81 362.11-2600.81 612.64-209.81 57.96-503.06 114.47-533.58 279.34-73.32 395.95 461.01 182.23 482.99 176.11 208.57-58.04 396.47-123.68 598.67-185.69l1244.64-374.7c781.68-171.3 1408.63-31.81 2162.91 85.91 542.44 84.66 1032.38-291.27 1156.57-814.79 76.35-321.87-46.69-283.61 175.5-634.18 207.22-326.93 398.7-644.46 450.55-1060.39v-458.7c-1.83-16.05-3.8-32.18-6.02-48.52-58.05-427.2-263.76-822.45-518.53-1075.51-80.52-80-136.12-108.71-215.92-188.91-73.64-74.03-128.73-129.08-201.82-203.01-80.75-81.68-137.67-111.74-215.79-189.05-72.34-71.6-126.94-141.26-207.07-196.59l-123.95 455.44zM2780.24 6615.74l-16.91 27.85c-115.7 583.93-720.16 1548.13-1113.36 2009.16l-472.98 529.44c46.11 112.29 339.01 491.2 396.76 531.34 57.67-35.18 120.35 19.99 253.54 73.29 93.13 37.26 176.62 73.08 273.39 105.9l277.43-283.21c269.26-332.19 495.86-596.51 722.45-998.3 243.42-431.63 556.37-1071.07 643.76-1644.33 8.42-160.6-315.48-545.2-371.79-688.4h-37.77c-65.44 67.3-462.74 303.09-554.52 337.25z"/><path class="fil1" d="m8154.69 8098.72-27.98 164.29c-25.24 410.2-143.06 817.94-298.31 1153.31-128.34 277.24-387.13 711.34-558.71 857.05-10.84 19.66.37 17.11-32.11 51.26 42.36 52.32 6.8-29.53 22.54 54.18 20.9 111.06-83.16 1045.4-95.98 1156.48 166.05-3.74 757.61-204.18 871.18-278.32 152.43-212.42 316.43-407.68 479.66-672.51 142.43-231.1 277.85-499 389.69-774.53 238.32-587.16 376.11-1227.84 411.35-1923.7-382.52 107.76-728.84 296.6-1170.2 368.54z"/><path class="fil0" d="M2100.68 9892.72c-34.35 50.09-47.5 59-93.95 103.23-44.48 42.34-56.55 51.91-91.53 97.12 168.34 178.2 871.26 735.29 1045.44 784.36 63.12-101.83 108.94-121.27 194.66-212.14 53.88-57.12 137.28-160.46 196.18-234.5 133.9-168.31 238.13-304.49 365.51-495.49 175.87-263.72 492.25-786.88 588.63-1132.16 82.42-233.28-230.14-1141.56-341.98-1428.75-31.67-81.33-54.42-136.95-89.73-213.73-41.42-90.06-46.1-146.57-129.6-193.79-87.39 573.26-400.34 1212.7-643.76 1644.33-226.59 401.78-453.18 666.11-722.45 998.3l-277.43 283.21z"/><path class="fil4" d="M9613.3 3562.02c253.27-255.57 451.6-811.28 656-1135.53-39.09-56.96-75.4-92.36-126.73-145.16-120.93-124.36-199.48-264.81-419.77-440.56-533.32-425.5-647.16-568.73-1353.17-924.03-157.37-79.2-638.11-293.81-815.1-312.01l-343.36 934.75c207.77 161.12 675.51 268.46 1369.66 835.59 200.1 163.49 1008.54 943.26 1032.47 1186.95"/><path class="fil3" d="m9320.25 7861.81-13.58.53 9.35 23.89c-35.23 695.86-173.03 1336.54-411.35 1923.7-111.83 275.54-247.26 543.43-389.69 774.53-163.22 264.83-327.23 460.09-479.66 672.51 71.15-7.34 217.47-84.44 299.49-119.1 460.02-194.39 1450.04-900.96 1745.75-1323.13 124.53-464.89 208.4-498.82 320.95-1165.4 75.78-448.78 100.63-931.43 68.28-1404.54-87.55 1.89-175.76 97.39-258.35 151.49-198.18 129.82-684.81 409.71-891.2 465.53z"/><path class="fil4" d="M5899.53 3864.65c312.12 220.45 718.49 296.02 1309.43 894.67 74.46 75.42 108.49 123.18 175.45 205.07 55.86 68.33 119.64 167.27 189.88 195.37 304.53-92.9 817.92-414.07 1090.98-624.51 38.38-29.58 34.69-26.78 70.97-53.29l75.03-57.83c-62.66-16.34-37.75-8.55-80.5-48.25-27.33-25.38-39.31-48.88-55.71-70.64l-580.01-608.98c-356.71-280.01-1022.05-811.35-1488.18-926.89l-538.1 839.86c-64.26 95.99-126.57 152.11-169.23 255.43zm3420.72 3997.16c206.39-55.82 693.02-335.71 891.2-465.53 82.59-54.1 170.8-149.59 258.35-151.49 32.35 473.11 7.5 955.76-68.28 1404.54-112.55 666.58-196.42 700.51-320.95 1165.4l357.35-419.72c119.62-172.69 214.73-304.4 323.54-486.13 192.99-322.32 385.86-726.78 504.74-1118.33l123.95-455.44c94.26-208.07 150.64-868.74 150.64-1200.18l-130.48 159.06c-194.59 244.81-728.92 846.02-946.09 905.34l-44.34-472.78c-89.86 26.78-178.06 120.61-266.6 182.81-89.27 62.71-163.21 114.38-255.97 174.32-177.71 114.86-420.09 218.73-559.91 327.42l-17.16 450.7z"/><path class="fil3" d="m1187.5 7340.31-23.48 13.21c-66.76 139.4-455.21 673.03-553.79 749.68 38.2 214.45 355.63 805.59 515.01 1019.89l51.75 59.09 472.98-529.44c393.21-461.04 997.67-1425.24 1113.36-2009.16-229.01 80.42-507.29 266.09-769.03 379.22-241.48 104.37-547.66 251.16-806.8 317.5z"/><path class="fil5" d="M2960.64 10877.43c104 83.92 195.93 118.79 316.95 191.79 64.1 38.66 109.34 58.55 170 83.01 204.78 82.57 301.47 143.15 556.08 228.3 84.9 28.41 338.78 95.6 389.52 129.46 72.99-326.98 63.55-1036.99 56.88-1392.39-2.26-120.06-28.86-1206.71-144.45-1314.45-96.38 345.28-412.76 868.44-588.63 1132.16-127.38 191-231.61 327.17-365.51 495.49-58.91 74.04-142.3 177.38-196.18 234.5-85.72 90.88-131.54 110.31-194.66 212.14z"/><path class="fil3" d="M6047.88 5589.78c75.28 195.68 190.19 394.45 269.36 591.91 77.74 193.93 172.63 571.18 251.09 626.07l458.26-55.88 42.86-26.42c-87.33-22-69.27-36.47-93.7-142.48-103.15-447.63-294.41-857.6-350.69-1094.92 121.89-77.84 342.3-103.51 488.8-152.31l460.43-176c-70.24-28.1-134.01-127.04-189.88-195.37-66.96-81.89-100.99-129.64-175.45-205.07-590.95-598.65-997.31-674.22-1309.43-894.67l-26.44-3.33c-39.78 90.77-83.12 106.3-134.15 209.82 29.29 55.08 708.4 822.48 863.91 1396.81-179.36 56.95-474.56 65.62-554.98 121.83z"/><path class="fil4" d="M392.48 4526.58c64.26 59.38 325.74-111.94 467.18-180.97 479.38-233.95 858.12-547.11 1268.72-836.18-78.79-44.5-122.06-172.42-178.71-246.13-314.86-409.67-379.86-345.62-622.76-542.47l-41.5-41.33c-64.03 59.55-217.34 312.24-271.84 403.33-85.31 142.6-162.11 279.02-243.13 440.02-146.7 291.5-286 653.73-377.95 1003.71zm6823.66 3486.66-427.04 23.51c-6.22 131.63 39.76 492.02 58.66 652.7 22.46 191.01 23.68 468.94 31.49 668.85 14.59 373.82-60.3 1143.33-40.06 1347.82 148.62-98.75 278.98-262.07 398.4-381.49 32.48-34.15 21.27-31.6 32.11-51.26-17.9-281.7 18.56-641.25 17.22-939.37-1.14-250.55-46.26-715.19-18.06-921.3l857.87-149.69 27.98-164.29-6.77-258.98-931.78 173.5z"/><path class="fil5" d="M4863.01 4272.79c122.85 17.37 164.71 75.22 251.74 151.32 73.79 64.5 133.37 96.69 178.76 179.11 126.07 90.73 291.04 304.8 403.38 452.96 59.73 78.78 123.09 170.38 175.27 255.13 54.98 89.33 106.01 205.91 175.71 278.47 80.42-56.21 375.62-64.88 554.98-121.83-155.51-574.33-834.62-1341.73-863.91-1396.81 51.03-103.52 94.37-119.05 134.15-209.82l-507.67-175.55c-88.22 78.12-161.71 202.19-240.82 294.54-53.96 63-66.09 87.36-112.75 140.88l-132.12 134.35c-4.26 4.36-11.4 11.27-16.72 17.25"/><path class="fil1" d="m1285.41 2679.51 41.5 41.33c242.89 196.84 307.89 132.8 622.76 542.47 56.65 73.7 99.92 201.62 178.71 246.13 135.97-124.45 256.09-215.77 380.19-323.64 68.28-59.37 108.22-116.47 171.77-181.91 48.6-50.02 158.26-119.29 173.66-190.38-151.42-296.8-585.08-689.77-978.65-824.38-131.67 112.56-192.92 209.13-310.25 329.55-55.83 57.31-85 102.05-137.33 166.28-57.4 70.46-88.43 119.29-142.35 194.57z"/><path class="fil0" d="M1875.34 1989.12c393.57 134.61 827.23 527.58 978.65 824.38 140.67-51.66 653.56-730.35 689.87-813.79-74.01-64-116.66-140.24-198.89-207.27-65.93-53.74-144.92-115.88-215.66-164.88-136.74-94.71-319.56-207.89-494.9-272.26-146.05 106.37-253.34 186.65-394.25 297.4-75.24 59.15-114.9 101.67-191.48 162.76-64.18 51.22-123.76 113.33-173.34 173.65z"/><path class="fil3" d="M7269.69 10273.36c171.58-145.71 430.37-579.81 558.71-857.05 155.25-335.36 273.07-743.1 298.31-1153.31l-857.87 149.69c-28.2 206.11 16.92 670.75 18.06 921.3 1.35 298.12-35.12 657.68-17.22 939.37z"/><path class="fil5" d="M2634.41 1355.3c175.34 64.37 358.16 177.55 494.9 272.26 70.75 49 149.74 111.14 215.66 164.88 82.23 67.03 124.88 143.26 198.89 207.27 234.07-282.53 681.31-1045.06 838.4-1445.58-182.73 3.95-789.32 255.05-938.56 328.55-147.15 72.48-266.29 139.05-412.29 220.27-146.93 81.75-263.41 168.76-397.01 252.35zM1600.66 6504.54c28 86.39-351.2 706.18-413.17 835.77 259.14-66.35 565.32-213.14 806.8-317.5 261.74-113.14 540.03-298.81 769.03-379.22l16.91-27.85 181.1-771.03c-131.67 114.89-485.63 281.32-666.42 366.16l-628.02 258.55c-60.92 26.78-26.83 6.07-66.24 35.13z"/><path class="fil6" d="m6046.58 2548.11 566.5 209.02c73.27-216.76 512.58-912.37 576.37-1216.88-144.71-46.95-483.69-227.8-625.55-176.58-86.52 162.94-157.48 417.55-240.4 602.28-96.21 214.31-176.09 376.62-276.92 582.16"/><path class="fil1" d="M256 6785.73c0 190.43 99.24 619.2 151.81 767.28 125.44 49.64 599.67-144.42 756.21-199.49l23.48-13.21c61.97-129.6 441.17-749.38 413.17-835.77-370.34 56.84-933.19 361.99-1344.67 281.19"/><path class="fil6" d="M3923.92 5207.18c117.26 84.43 308.74 263.14 378.02 369.68l17.66-12.28 973.92-961.36c-45.38-82.42-104.97-114.61-178.76-179.11-87.03-76.09-128.89-133.95-251.74-151.32-27.28 78.01-354.91 409.52-433.2 480.22-96.29 86.96-142.9 126.04-250.67 229.45-77.69 74.53-186.61 138.07-255.22 224.72z"/><path class="fil5" d="M2983.67 5838.18c86.4 115 307.38 297.32 351.08 440.3h37.77c76.96-93.25 358.68-265.02 465.99-345.94 154.71-116.68 302.2-254.9 463.42-355.68-69.27-106.54-260.76-285.24-378.02-369.68l-220.49 160.81c-182.2 136.39-524.14 385.3-719.75 470.19"/><path class="fil6" d="M6568.33 6807.76c-14.82 109.36 203.82 954.41 220.77 1228.99l427.04-23.51c2.56-395.12-124.3-879.9-189.55-1261.36zm1579.59 1031.98 6.77 258.98-8.87 156.05c441.35-71.94 787.67-260.78 1170.2-368.54l-9.35-23.89 2.63-432.04c-174.17 55.34-363.83 155.21-557.95 227.21-203.93 75.64-393.9 121.08-603.43 182.23m-1308.73 2866.38-60.94 698.99c-7.64 63.63-28.54 150.32 5.73 203.75l380.18-73.57c12.82-111.08 116.88-1045.42 95.98-1156.48-15.74-83.72 19.82-1.87-22.54-54.18-119.42 119.42-249.78 282.74-398.4 381.49z"/><path class="fil4" d="m407.81 7553.01 202.42 550.19c98.58-76.66 487.03-610.29 553.79-749.68-156.54 55.07-630.77 249.13-756.21 199.49"/><path class="fil6" d="M2780.24 6615.74c91.78-34.16 489.08-269.95 554.52-337.25-43.71-142.98-264.68-325.3-351.08-440.3l-22.33 6.52-181.1 771.03zm-865.04 3477.33c34.98-45.21 47.05-54.78 91.53-97.12 46.45-44.23 59.59-53.14 93.95-103.23-96.77-32.81-180.27-68.63-273.39-105.9-133.19-53.3-195.87-108.47-253.54-73.29 33.91 54.92 36.22 46.04 79.63 95.31 41.95 47.6 38.4 53.42 77.32 99.94 51.5 61.55 129.17 133.18 184.5 184.29"/></g></g></svg>