<svg width="24" height="24" viewBox="0 0 24 24" fill="none" xmlns="http://www.w3.org/2000/svg"><defs><clipPath id="a"><path fill="#fff" fill-opacity="0" d="M0 0h24v24H0z"/></clipPath></defs><g clip-path="url(#a)"><path d="M17 3H7C4.79 3 3 4.79 3 7v10c0 2.2 1.79 4 4 4h10c2.2 0 4-1.8 4-4V7c0-2.21-1.8-4-4-4"/><path d="M7 3C4.79 3 3 4.79 3 7v10c0 2.2 1.79 4 4 4h10c2.2 0 4-1.8 4-4V7c0-2.21-1.8-4-4-4z" stroke="#000000" stroke-width="1.5" stroke-linejoin="round"/><path d="M12 16c2.2 0 4-1.8 4-4a3.999 3.999 0 1 0-4 4"/><path d="M16 12a3.999 3.999 0 1 0-8.002-.002A3.999 3.999 0 0 0 16 12Z" stroke="#000000" stroke-width="1.5" stroke-linejoin="round"/><path d="M17.5 7.5c.55 0 1-.45 1-1 0-.56-.45-1-1-1-.56 0-1 .44-1 1 0 .55.44 1 1 1" fill="#000000"/></g></svg>