<svg width="24" height="24" viewBox="0 0 24 24" fill="none" xmlns="http://www.w3.org/2000/svg">
    <defs>
        <clipPath id="a">
            <path fill="#fff" fill-opacity="0" d="M0 0h24v24H0z" />
        </clipPath>
    </defs>
    <g clip-path="url(#a)">
        <path
            d="M20.7 3.65s1.95-.76 1.79 1.08c-.06.76-.54 3.41-.92 6.28l-1.3 8.49s-.1 1.25-1.08 1.46c-.97.22-2.42-.75-2.69-.97-.22-.16-4.05-2.6-5.4-3.79-.38-.32-.81-.97.05-1.73l5.67-5.41c.65-.65 1.29-2.16-1.4-.32l-7.56 5.14s-.86.54-2.48.05l-3.51-1.08s-1.29-.81.92-1.63c5.4-2.54 12.03-5.14 17.91-7.57"
            fill="#000000" />
    </g>
</svg>