<svg xmlns="http://www.w3.org/2000/svg" xml:space="preserve" width="249.148" height="249.148" version="1.0" style="shape-rendering:geometricPrecision;text-rendering:geometricPrecision;image-rendering:optimizeQuality;fill-rule:evenodd;clip-rule:evenodd" viewBox="0 0 6592.04 6592.04"><defs><linearGradient id="a" gradientUnits="userSpaceOnUse" x1="965.38" y1="965.38" x2="5626.66" y2="5626.66"><stop offset="0" style="stop-opacity:1;stop-color:#fab703"/><stop offset="1" style="stop-opacity:1;stop-color:#a60907"/></linearGradient></defs><path d="M1776.76 5613.53c73.62-109.93 211.17-240.78 358.67-477.89l98.85-160.1c.88-4.43 4.02-5.08 6.14-7.53 26.3 98.29 22.62 731.44-.16 838.65-169-51.25-327.72-123.29-463.5-193.13m1918.51-1094.56c-2.27-209.39-58.04-210.97 26.83-229.9l410.8-53.32c0 377.19-227.84 858.32-424.88 1035.63zm1261.63-579.2c112.21-39.93 307.41-190.02 360.16-205.64 4.74 482.2-3.02 773.18-134.88 1164.64-33.07 98.2-41.31 144.01-108.2 213.58-117.42 122.1-400.54 364.86-540.77 422.74 250.11-384.33 423.69-995.72 423.69-1595.32M1103 4476.51c210.77-263.58 399.83-625.34 505.71-949.02 19.21-58.74 43.24-172.02 65.05-218.59 54.23 48.16 134.55 176.64 176.34 248.66 163.48 281.74 259.08 568.86 328.45 908.27 39.23 191.97-280.37 655.46-404.95 809.95-52.89 65.59-130.92 170.15-189.96 220.04-68.95-33.8-311.35-212.5-345.57-268.54 122.98-137.22 243.81-260.47 360.37-422.94 60.23-83.96 108.46-157.31 158.89-240.66 42.17-69.69 131.66-176.98 65.1-257.15-35.55-42.82-108.93-48.83-153.42-10.9-8.52 7.26-346.27 580.91-587.5 776.55-58.38-37.34-197.03-214.49-242.79-282.65zm3248.78-304.98c71.62-5.22 329.62-99.12 385.9-128.41 4.25 432.33-140.46 890.14-282.07 1185.44-81.18 169.29-171.02 299.94-283.71 449.22-105.97 140.37-306.86 135.12-512.17 206.43l22.54-283.55c52.85-30.68 101.3-85.9 141.53-128.29 315.65-332.6 527.98-806.7 527.98-1300.84M360.5 3669.4c120.95-2.34 249.62-68.14 360.51-77.25-46.13 87.17-199.02 362-270.38 411.2-41.52-65.08-69.02-249.63-90.13-333.95m347.63 927c-31.35-64.19-71.52-129.74-103.08-193.03-64.85-130.09-78.29-137.14-29.16-195.76 90.19-107.6 169.24-223.28 244.81-348.26l157.55-293.52c19.43-44.08 10.79-58.68 57.55-83.84l406.21-173.09c-3.74 91.56-96.34 314.31-127.81 387.09-53.86 124.58-103.78 220.23-169.35 332.79-71.88 123.38-336.29 500.37-436.72 567.62m4802.4-1030c155.99-104.35 289.96-311.64 357.21-370.08-16.87 284.61-40.74 516.51-110.33 745.74-43.74 144.09-173.89 516.6-259.75 602.84.48-79.16 20.67-161.08 26.09-244.47 5.65-86.97 12.61-150.43 12.54-244.78-.22-301.29-18.55-283.91-25.76-489.25M1792.5 3105.76c52.62-32.3 100.68-64.58 155.02-102.51 51.93-36.24 96.25-74.06 151.12-104.93 106.93 82.38 237.16 248.8 318.03 376.31 92.59 145.98 165.18 294.71 231.56 463.21 113.41 287.9 222.54 833.45 222.91 1154.69l1.35 579.5-55.71 576.39c-91.01 0-283.15 21.11-335.52-31.92-56.33-57.03-9.25-240.43-9.25-325.71v-618.01c0-484.92-176.32-1159.67-411.01-1584.64-124.62-225.66-158.73-226.12-268.5-382.38m483.85-350.49c46.9-59.48 113.67-105.75 173.18-164.08 58.91-57.73 101.25-106.64 164.11-169.03 169.23 99.27 409.37 458.03 502.15 642.06 130.22 258.26 217.86 527.42 286.08 859.99 153.82 749.98 90.38 1363.62 22.74 2098l-386.09 16.2c.45-85.1 18.45-226.49 28.32-319.64 37.57-354.83 33.86-777.16-5.32-1133-11.49-104.4-28.98-222.28-48.51-324.39-40.18-210.07-86.42-396.7-159.21-587.52-103.68-271.84-225.16-500.16-400.41-720.02-32.32-40.53-53.46-61.55-89.64-102.72-29.3-33.33-66.89-57.79-87.4-95.85m490.06-502.13c17.48-40.4 72.32-100.3 104.73-138.45 196.65 10.19 781.41 396.65 886.73 576.2-58.54 37.9-420.61 127.45-513.35 128.75-33.71-5.8-35.06-28.1-65.09-76.44-181.95-292.83-350.71-404.48-413.02-490.06m472.68-715.58c117.31 52.65 232.5 87.72 351.25 151.31 222.16 118.96 410.62 238.58 591.93 412.48 61.71 59.19 202.87 188.27 233.88 254.79-105.54 64.41-316.23 216.83-437.75 244.63-40.45-27.26-62.94-68.89-99.6-106.35-208-212.53-603.44-513.32-868.39-563.16zM489.25 2214.51c22.47-125.56 225.5-525.48 296.13-580.83 90.09 40.16 191.44 158.13 241.91 233.21-77.43 84.92-474.69 331.91-538.04 347.62M3335 3025.99c209.02-18.7 561.16-138.93 724.81-214.96 522.11-242.56 927.6-604.61 1204.55-1112.66 42.05-77.14 132.36-287.07 156.05-307.86 45.3 8.25 47.81 27.15 68.76 60.55 177.58 283.03 221.54 281.97 60.05 609.1-216.31 438.16-496.85 679.03-515.85 734.55-22.61 66.09 24.42 128.11 82.56 138.07 76.71 13.13 109.02-52.04 148.88-88.58 150.58-138 319.79-388.86 418.78-572.52 35.51-65.89 104.7-254.57 165.47-74.16 25.31 75.16 92.7 254.99 98.46 314.07 16.78 172.17-79.16 295.15-149.24 402.28-300.15 458.77-728.06 780.93-1243.42 971.32-228.7 84.49-663.64 195.88-911.21 196.21-2.71-116.41-78.63-361.4-72.68-420.31 264.94-38.87 466.78-85.71 693.49-169.17 109.86-40.44 195.01-79.05 304.31-133.52 80.77-40.25 237.08-96.04 201.87-209.95-17.25-55.79-73.22-86.98-142.57-66.49-24.92 7.36-112.41 61.23-143.22 76.76-246.06 124.07-712.57 290.65-982.83 291.8-60.11-160.27-96.84-291.74-167.02-424.53M914.13 1454.88c51.03-84.16 122.48-138.94 167.38-206 90.68 48.56 310.08 192.59 331.57 283.26-43.26 49.53-164.6 165.13-215.7 193.12-62.68-94.7-181.27-214.46-283.25-270.38M3514.9 914.13c534.22 156.72 1101.5 584.34 1351.88 991.38-79.78 117.8-183.09 214.51-279.13 304.88-39.2-37.81-87.42-97.44-129.37-141.16-47.72-49.74-86.42-86.63-135.35-134.83-402.97-396.94-874.31-523.6-985.32-595.39zm-2266.02 180.25c37.16-44.9 154.89-133.58 206-167.37 80.6 19.72 253.62 148.85 298.39 206-14.23 39.65-148.43 201.77-182.24 229.71-84.09-105.13-196.44-195.04-322.15-268.34m2343.27-386.25c7.19-86.42 56.79-162.98 64.72-257.15 345.29 86.44 603.66 177.99 875.13 347.22 446.88 278.58 558.86 479.63 656.66 548.66-32.43 121.59-127.78 255.08-180.26 365.52-76.26-56.13-330.98-494.47-990.7-824.51-190.27-95.2-334.23-135.92-425.55-179.74m-1918.21 77.25c83.28-72.32 323.75-173.21 450.1-218.52-37.9 65.01-73.61 130.02-112.24 195.77-39.45 67.14-82.53 125.3-119.16 190.13zM302.49 2555.63c276.48-134.91 493.61-244.51 746.33-425.41 61.01-43.68 108.29-80.22 168.1-127.65 411.51-326.37 667.76-642.33 959.42-1087.79 174.76-266.9 205.74-402.16 303.98-584.28 45.58-84.49 313.57-154.74 313.57 17.13 0 122.93-130.31 376.63-184.54 484.96-354.35 707.87-829.51 1264.09-1501.23 1679.34-222 137.24-617.31 338.19-863.49 397.84zM206 3257.4c0-143.62 129.82-145.28 230.23-181.86 94.82-34.54 197.56-73.56 285.55-113.9C1850.95 2444.01 2588.22 1593 3010.57 448.42c55.82-151.26 47.81-233.81 169.01-231.81 66.99 1.1 283.82 17.77 283.82 118.14 0 100.23-153.15 505.37-192.21 605.61-74.91 192.27-155.97 357.3-250.29 535.69-168.11 317.94-432.58 667.63-667.92 902.69-244.7 244.42-570.53 501.96-898.05 672.61-179.1 93.32-347.55 174.64-542.13 243.91-100.35 35.73-194.43 68.69-300.83 97.51-172.53 46.72-326.66 113.96-383.67 22.69-26.09-41.77-22.3-107.63-22.3-158.06M0 3134.66v315.86c25.9 37.27 20.57 62.27 66.29 114.32 104.75 119.25 50.53 2.29 101.83 245.43 49.42 234.23 121.26 421.88 215.32 633.98 261.69 590.03 781.5 1097.42 1352.52 1389.86 77.85 39.87 152.72 73.41 239.54 108.11 42.07 16.81 76.32 27.9 123.92 44.39 227.96 78.98 114.94 28.73 200.12 147.08 102.03 141.76 226.84 123.6 378.48 123.6 49.91 0 133.33 4.9 179.32-1.52 82.94-11.58 32.78-31.21 125.72-8.11 83.68 20.8 227.03-3.65 325.92-3.12 359.92 1.93 218.48-116.83 367.12-147.44 420.91-86.66 750.82-222.07 1087.07-446.03 277.67-184.95 515.84-411.68 703.24-661.11 247.37-329.27 324.65-510.83 469-895.69 45.52 31.59 302.27 359.05 343.63 428.86 92.63 156.31 137.69 410.2 68.27 626.73-64.3 200.53-216.08 329.16-259.48 512.73-31.22 132.02 1.5 206.4-74.23 312.28-184.85 258.47-566.57 50.84-940.31 37.77-480.85-16.82-819.82 137.73-1272.85 272.34-225.42 66.98-538.89 106.94-343.91 307.06h97.63l900.56-283.81c751.77-233.11 1191.27 139.89 1546.06-50.18 325.56-174.41 263.17-466.68 306.19-581.83 22.37-59.91 74.92-133.72 109.45-186.69 36.21-55.54 75.72-121.9 103.8-192.03 12.51-31.25 28.59-75.97 39.95-114.48 10.76-36.5 14.98-92.5 31.87-123.52v-295c-13.8-24.52-39.68-153.62-57.55-200.95-71.57-189.53-175-290.76-291.6-442.51l-219.62-270.1c-14.84-28.89 38.12-357 46.92-420.45 14.77-106.6 16.02-365.76 3.81-481.19-10.82-102.4 14.63-86.65 49.82-172.9 97.25-238.41 13.31-394.43-53.24-594.22-41.6-124.89-82.57-243.51-225.29-263.79 46.57-246.95-22.65-353.69-124.76-505.98-195.7-291.88-154.08-226.48-390.25-229.69-276.28-293.48-540.85-514.38-926.91-706.49-345.02-171.69-696.15-231.51-722.28-243.38-53.23-24.18-39.27-76.93-119.72-137.41-115.19-86.58-285.74-68.55-294.92-91.58-1.51-3.79-6.28-2.1-9.05-3.86h-180.26c-76.86 53.41 7.29-23.03-167.02 115.53-58.51-83.98-157.58-103.91-288.16-81.35-125.21 21.63-201.91 33.12-275.99 110.16-119.13 123.9 13.51 111.57-202.4 183.47C1257.64 622.8 490.27 1376.44 235.4 2268.9c-80.85 283.1-84.49-141.03-203.42 569.68-33.14 198.05 49.07 133.14 1.97 231.79z" style="fill:url(#a)"/></svg>