<svg viewBox="0 0 44 44" xmlns="http://www.w3.org/2000/svg" width="44" height="44" fill="none">
	<path d="M0 0h44v44H0z" />
	<path
		d="M22 39.967c7.729 0 14.264-6.124 16.402-13.154.48-1.581 3.764-1.581 3.764-4.996s-3.314-3.612-3.85-5.273C36.09 9.657 29.626 3.667 22 3.667c-7.632 0-14.099 5.996-16.32 12.889-.534 1.658-3.847 1.786-3.847 5.261s3.293 3.475 3.79 5.08c2.165 6.987 8.678 13.07 16.377 13.07" />
	<path
		d="M38.402 26.813c.48-1.581 3.764-1.581 3.764-4.996s-3.314-3.612-3.85-5.273C36.09 9.657 29.626 3.667 22 3.667c-7.632 0-14.099 5.996-16.32 12.889-.534 1.658-3.847 1.786-3.847 5.261s3.293 3.475 3.79 5.08c2.165 6.987 8.678 13.07 16.377 13.07 7.729 0 14.264-6.124 16.402-13.154Z"
		stroke="#239EE8" stroke-width="1.5" />
	<path d="M38.316 16.544C36.09 9.657 29.627 3.667 22 3.667" stroke="#239EE8" stroke-linecap="round"
		stroke-width="1.5" />
	<path
		d="M17.508 19.8c0 .758-.205 1.422-.513 1.885-.31.465-.69.682-1.045.682-.356 0-.734-.217-1.045-.682-.308-.462-.513-1.127-.513-1.885 0-.757.205-1.422.513-1.885.31-.465.689-.682 1.045-.682s.734.217 1.045.682c.308.463.513 1.128.513 1.885"
		fill="#239EE8" />
	<path
		d="M16.995 21.685c-.31.465-.69.682-1.045.682-.356 0-.734-.217-1.045-.682-.308-.462-.513-1.127-.513-1.885 0-.757.205-1.422.513-1.885.31-.465.689-.682 1.045-.682s.734.217 1.045.682c.308.463.513 1.128.513 1.885s-.205 1.422-.513 1.885Z"
		stroke="#239EE8" stroke-width=".5" />
	<path
		d="M29.609 19.8c0 .758-.206 1.422-.514 1.885-.31.465-.688.682-1.044.682s-.735-.217-1.045-.682c-.308-.462-.514-1.127-.514-1.885 0-.757.206-1.422.514-1.885.31-.465.689-.682 1.044-.682.357 0 .735.217 1.045.682.308.463.514 1.128.514 1.885"
		fill="#239EE8" />
	<path
		d="M29.095 21.685c-.31.465-.688.682-1.044.682s-.735-.217-1.045-.682c-.308-.462-.514-1.127-.514-1.885 0-.757.206-1.422.514-1.885.31-.465.689-.682 1.044-.682.357 0 .735.217 1.045.682.308.463.514 1.128.514 1.885s-.206 1.422-.514 1.885Z"
		stroke="#239EE8" stroke-width=".5" />
	<path d="M16.957 29.105q2.655 1.786 5.052 1.786 2.395 0 4.749-1.783" fill="#239EE8" fill-rule="evenodd" />
	<path d="M16.957 29.105q2.655 1.786 5.052 1.786 2.395 0 4.749-1.783m2.327-23.424q.368 2.658-1.622 3.885t-6.467 1.15"
		stroke="#239EE8" stroke-linecap="round" stroke-width="1.5" />
</svg>