<svg width="24" height="24" viewBox="0 0 24 24" fill="none" xmlns="http://www.w3.org/2000/svg"><defs><clipPath id="a"><path fill="#fff" fill-opacity="0" d="M0 0h24v24H0z"/></clipPath></defs><g clip-path="url(#a)"><path d="m21.61 10.39.02.02c-.07.41-.44.69-.86.63a.747.747 0 0 1-.63-.85l.03-.02zm-7.99-6.76-.02.02a.747.747 0 0 1-.85-.63c-.06-.42.22-.79.63-.86l.02.02z"/><path d="M20.88 10.3c.13-.85.09-1.72-.12-2.55-.28-1.1-.85-2.15-1.71-3.01a6.48 6.48 0 0 0-5.56-1.83" stroke="#000000" stroke-width="1.5" stroke-linejoin="round" stroke-linecap="round"/><path d="m17.81 9.98.02.03c-.06.41-.44.69-.85.63a.74.74 0 0 1-.63-.85l.02-.02zm-4-2.78-.02.03a.74.74 0 0 1-.85-.63c-.07-.42.21-.79.63-.86l.02.02z"/><path d="M17.09 9.9a2.99 2.99 0 0 0-.85-2.57 3 3 0 0 0-2.56-.85" stroke="#000000" stroke-width="1.5" stroke-linejoin="round" stroke-linecap="round"/><path d="M7.18 4.39c.37 0 .7.2.88.52l1.22 2.2c.16.29.17.64.02.93L8.12 10.4s.34 1.76 1.77 3.18c1.43 1.43 3.18 1.77 3.18 1.77l2.36-1.18c.29-.15.64-.14.93.02l2.21 1.23c.32.18.52.51.52.87v2.54c0 1.29-1.2 2.23-2.43 1.81-2.51-.85-6.42-2.46-8.89-4.93-2.47-2.48-4.09-6.38-4.94-8.89-.41-1.23.52-2.43 1.82-2.43z"/><path d="m8.06 4.91 1.22 2.2c.16.29.17.64.02.93L8.12 10.4s.34 1.76 1.77 3.18c1.43 1.43 3.18 1.77 3.18 1.77l2.36-1.18c.29-.15.64-.14.93.02l2.21 1.23c.32.18.52.51.52.87v2.54c0 1.29-1.2 2.23-2.43 1.81-2.51-.85-6.42-2.46-8.89-4.93-2.47-2.48-4.09-6.38-4.94-8.89-.41-1.23.52-2.43 1.82-2.43h2.53c.37 0 .7.2.88.52Z" stroke="#000000" stroke-width="1.5" stroke-linejoin="round"/></g></svg>