<svg viewBox="0 0 44 44" xmlns="http://www.w3.org/2000/svg" width="44" height="44" fill="none"><path d="M0 0h44v44H0zm5.5 5.5 8.25 8.25z"/><path d="m38.5 38.5-8.25-8.25M5.5 5.5l8.25 8.25" stroke="#FEFEFE" stroke-linecap="round" stroke-linejoin="round" stroke-width="1.5"/><path d="m38.5 5.5-8.25 8.25z"/><path d="m5.5 38.5 8.25-8.25M38.5 5.5l-8.25 8.25" stroke="#FEFEFE" stroke-linecap="round" stroke-linejoin="round" stroke-width="1.5"/><path d="M22 26.583a4.583 4.583 0 1 0 0-9.166 4.583 4.583 0 0 0 0 9.166"/><path d="M26.583 22a4.583 4.583 0 1 0-9.166 0 4.583 4.583 0 0 0 9.166 0" stroke="#FEFEFE" stroke-linecap="round" stroke-linejoin="round" stroke-width="1.5"/></svg>
