<svg viewBox="0 0 24 24" xmlns="http://www.w3.org/2000/svg" width="24" height="24" fill="none">
    <path d="M0 0h24v24H0z"/>
    <path d="M17 3H7a4 4 0 0 0-4 4v10a4 4 0 0 0 4 4h10a4 4 0 0 0 4-4V7a4 4 0 0 0-4-4"/>
    <path d="M7 3a4 4 0 0 0-4 4v10a4 4 0 0 0 4 4h10a4 4 0 0 0 4-4V7a4 4 0 0 0-4-4z" stroke="currentColor" stroke-linejoin="round" stroke-width="1.5"/>
    <path d="M12 16a4 4 0 1 0 0-8 4 4 0 0 0 0 8"/>
    <path d="M16 12a4 4 0 1 0-8 0 4 4 0 0 0 8 0Z" stroke="currentColor" stroke-linejoin="round" stroke-width="1.5"/>
    <path d="M17.5 7.5a1 1 0 1 0 0-2 1 1 0 0 0 0 2" fill="currentColor"/>
</svg>