<?xml version="1.0" encoding="UTF-8"?>
<!DOCTYPE svg PUBLIC "-//W3C//DTD SVG 1.0//EN" "http://www.w3.org/TR/2001/REC-SVG-20010904/DTD/svg10.dtd">
<!-- Creator: CorelDRAW -->
<svg xmlns="http://www.w3.org/2000/svg" xml:space="preserve" width="96.9034mm" height="124.458mm" version="1.0" style="shape-rendering:geometricPrecision; text-rendering:geometricPrecision; image-rendering:optimizeQuality; fill-rule:evenodd; clip-rule:evenodd"
viewBox="0 0 7722.53 9918.47"
 xmlns:xlink="http://www.w3.org/1999/xlink"
 xmlns:xodm="http://www.corel.com/coreldraw/odm/2003">
 <defs>
  <style type="text/css">
   <![CDATA[
    .fil2 {fill:#0B0C0C}
    .fil3 {fill:#DEDEDE}
    .fil5 {fill:#DF5C87}
    .fil4 {fill:#E05C88}
    .fil0 {fill:#F2F2F2}
    .fil1 {fill:#F56595}
   ]]>
  </style>
 </defs>
 <g id="Слой_x0020_1">
  <metadata id="CorelCorpID_0Corel-Layer"/>
  <g id="_2636452725600">
   <path class="fil0" d="M3666.16 2857.43c652.62,-93.65 1005.47,246.03 1251.53,562.32 136.62,175.61 240.33,343.56 376.34,533.76 124.59,174.24 263.41,319.12 379.91,530.49 245.83,446 283.79,1000.06 -70.19,1344.93 -355.96,346.79 -965.47,257.19 -1527.81,213.33 -560.96,-43.75 -1209.3,166.26 -1712.05,-49.59 -392.19,-168.38 -645.95,-683.28 -443.97,-1232.53 144.55,-393.08 343.41,-558.74 534.32,-840.91 293.45,-433.72 588.78,-972.4 1211.91,-1061.81zm-2442.38 -774.8c493.83,-94.14 894.94,364 1023.43,694.82 188.47,485.24 30.55,1036.3 -425.47,1127.15 -521.85,103.97 -900.72,-352.55 -1041.91,-686.53 -210.75,-498.56 -25.95,-1045.84 443.95,-1135.43zm1481.48 -1370c487.89,-133.51 859.34,347.04 960.13,724.09 251.99,942.62 -572.81,1502.67 -1129.82,974.35 -566.7,-537.52 -460.98,-1525.84 169.7,-1698.44zm-1518.47 9089.61l4659.17 0c0,-1104.21 0,-2208.41 0,-3312.61 0,-866.11 86.07,-1619.61 482.79,-2395.95 24.57,-48.08 43.66,-90.92 71.05,-142.52 64.67,-121.8 58.06,-97.19 42.56,-125.83 -136.42,16.78 -215.4,103.12 -430.42,94.32 -449.81,-18.43 -689.09,-456.07 -598.01,-934.5 53.92,-283.28 228.09,-539.99 379.57,-666.62 380.49,-318.07 530.44,-217.37 783.24,-233.72 14.3,-21.03 32.73,-16.71 -49.62,-119.36 -180.34,-224.83 -313.75,-271.67 -354.73,-327.9 -110.73,3.58 -79.98,-23.18 -138.98,-29.79 -131.84,-74.11 -294.59,-79.5 -447,-106.88 -0.01,0.75 0.92,75.61 -1.83,87.9 -22.02,98.27 -2.77,36.32 -34.21,77.1 -74.02,428.54 -233.96,686.58 -509.62,849.58 -736.48,435.47 -1321.84,-578.49 -864.22,-1368.48 330.02,-569.75 744.36,-423.54 899.34,-435.59 23.45,-27.83 -34.03,-87.65 -69.69,-130.57 -40.65,-48.92 -64.11,-82.85 -108.62,-124.46 -101.51,-94.9 -139.27,-140.54 -291.24,-176.99 -230.42,-6.91 -528,258.74 -621.35,366.46 -189.62,218.79 -197.58,-66.91 -577.6,-268.74 -809.04,-429.69 -1590.67,144.01 -1684.66,984.02 -18.8,168.04 16.72,299.19 -191.42,272.22 -172.46,-22.35 -301.57,-24.17 -470.7,20.48 -480.76,126.94 -835.46,556.31 -822.54,1174.98 17.44,834.73 823.97,1301.62 938.7,3021.25 41.07,615.71 10.03,1329.61 10.03,1956.86 0,665.11 0,1330.22 0,1995.32z"/>
   <path class="fil1" d="M4963.88 5853.06c198.12,-197.98 381.92,-364.98 357.63,-758.99 -28.13,-456.4 -347.03,-782.67 -576.01,-1095.25 -74.49,-101.7 -146.08,-222.88 -228.43,-333.34 -113.35,-152.05 -295.76,-404.45 -458.87,-509.33l-98.94 -74.71c-607.99,-76.39 -935.04,408.67 -1156.43,741.23 -137.45,206.45 -259.16,361.85 -400.47,548.54 -119.64,158.05 -267.12,383.13 -310.89,638.82 -52.71,307.84 85.1,576.08 245.87,699.3 384.95,295.05 1142.93,58.33 1719.31,99.27 296.48,21.05 608.54,73.84 907.24,44.47z"/>
   <path class="fil2" d="M1186.78 9802.24c0,-665.1 0,-1330.21 0,-1995.32 0,-627.25 31.04,-1341.15 -10.03,-1956.86 -114.73,-1719.63 -921.27,-2186.52 -938.7,-3021.25 -12.93,-618.67 341.78,-1048.04 822.54,-1174.98 169.13,-44.65 298.24,-42.83 470.7,-20.48 208.14,26.97 172.62,-104.18 191.42,-272.22 94,-840.01 875.63,-1413.71 1684.66,-984.02 380.02,201.83 387.98,487.53 577.6,268.74 93.35,-107.72 390.93,-373.37 621.35,-366.46 157.08,-140.66 764.18,-8.59 1040.33,280.17 377.33,394.58 310.79,755.29 386.77,1048.23 59,6.61 28.24,33.37 138.98,29.79 684.5,-157.47 1372,418.91 1307.56,1268.59 -46.52,613.49 -460.11,950.64 -736.32,1873.81 -247.14,826.06 -206.61,1513.71 -206.61,2407.04 0,871.75 0,1743.48 0,2615.22 4.74,88.88 14.07,52.5 56.74,116.23l116.22 0 53.97 -62.27 23.02 -4045.11c4.33,-181.92 55.35,-417.4 89.22,-588.79 258.87,-1310.08 916.3,-1591.73 840.24,-2586.81 -23.02,-301.15 -216.61,-735.28 -441.66,-914.4 -294.78,-234.61 -506.11,-345.68 -1029.72,-345.68 -7.66,-343.52 -233.55,-836.44 -514.58,-1054.56 -222.45,-172.65 -458.61,-290.93 -727.3,-320.85l-272.8 0c-67.84,7.22 -137.76,19.76 -210.02,38.17 -376.84,95.91 -496.84,280.05 -658.07,388.02 -55.82,-37.38 -79.74,-76.44 -132.55,-119.28 -47.51,-38.54 -108.49,-83.84 -158.57,-112.64 -212.02,-121.9 -445.33,-185.36 -672.79,-194.27l-111.24 0c-304.62,12.04 -590.35,123.18 -789.69,324.19 -98.57,99.39 -166.48,162.62 -246.89,276.16 -127.54,180.04 -247.35,490.48 -271.03,775.06 -653,0 -1043.47,225.7 -1313.37,720.68 -292.53,536.48 -158.62,1190.88 92.06,1624.21 166.38,287.6 314.81,600.32 434.56,940.85 121.06,344.22 197.26,707.41 241.53,1114.52 36.87,339.1 22.19,1006.94 22.19,1353.23 0,910.49 0,1820.98 0,2731.46 79.33,68.75 38.27,53.08 174.34,58.12 42.8,-63.92 52.76,-27.61 55.94,-116.23z"/>
   <path class="fil3" d="M6172.39 1637.56c40.98,56.22 174.39,103.07 354.73,327.9 82.35,102.64 63.92,98.33 49.62,119.36 63.01,61.09 570.97,213.76 430.07,926.57 -35.38,179.01 -121.53,354.16 -214.2,481.04 -148.1,202.76 -299.34,259.65 -350.25,332.92 15.5,28.63 22.11,4.02 -42.56,125.83 -27.38,51.59 -46.48,94.44 -71.05,142.52 -396.72,776.34 -482.79,1529.84 -482.79,2395.95 0,1104.2 0,2208.4 0,3312.61l691.06 0c0,-871.74 0,-1743.48 0,-2615.22 0,-893.34 -40.53,-1580.98 206.61,-2407.04 276.22,-923.17 689.8,-1260.32 736.32,-1873.81 64.44,-849.68 -623.06,-1426.07 -1307.56,-1268.59z"/>
   <path class="fil2" d="M3959.25 3081.44c505.85,32.05 812.77,498.7 1055.79,879.84 84.31,132.21 185.57,238.96 273.78,365.88 160.4,230.77 397.58,520.72 347.48,918.52 -46.34,367.97 -290.11,570.16 -672.42,607.39 -298.71,29.37 -610.76,-23.41 -907.24,-44.47 -576.39,-40.95 -1334.36,195.77 -1719.31,-99.27 -160.77,-123.22 -298.58,-391.46 -245.87,-699.3 43.78,-255.69 191.26,-480.77 310.89,-638.82 141.31,-186.68 263.03,-342.08 400.47,-548.54 221.4,-332.55 548.44,-817.61 1156.43,-741.23zm-293.1 -224c-623.13,89.42 -918.45,628.09 -1211.91,1061.81 -190.91,282.17 -389.77,447.83 -534.32,840.91 -201.98,549.25 51.78,1064.16 443.97,1232.53 502.74,215.85 1151.09,5.83 1712.05,49.59 562.35,43.86 1171.85,133.46 1527.81,-213.33 353.98,-344.87 316.01,-898.93 70.19,-1344.93 -116.5,-211.37 -255.32,-356.25 -379.91,-530.49 -136.01,-190.2 -239.72,-358.15 -376.34,-533.76 -246.06,-316.29 -598.91,-655.97 -1251.53,-562.32z"/>
   <path class="fil2" d="M6003.57 3686.04c-353.1,-53.31 -449.31,-404.44 -330.24,-770.86 76.05,-234.03 341.25,-589.19 597.91,-582.56 160.71,-131.8 402.87,79.88 454.86,169.12 94.17,161.63 85.72,395.83 22.57,578.29 -97.14,280.68 -373.59,620.61 -745.11,606zm438.78 139.3c50.91,-73.27 202.15,-130.15 350.25,-332.92 92.67,-126.87 178.82,-302.03 214.2,-481.04 140.9,-712.81 -367.07,-865.47 -430.07,-926.57 -252.8,16.35 -402.74,-84.35 -783.24,233.72 -151.48,126.62 -325.65,383.33 -379.57,666.62 -91.08,478.43 148.2,916.07 598.01,934.5 215.02,8.81 294,-77.54 430.42,-94.32z"/>
   <path class="fil2" d="M2739.76 956.18c31.26,-26.17 -12.58,-11.69 58.36,-28.61 70.45,-16.81 160.36,3.61 222.75,29.92 104.41,44.04 137.23,81.06 202.12,146.85 485.73,492.62 208.15,1413.25 -287.64,1264.27 -261.91,-52.01 -456.06,-340.01 -513.37,-616.16 -36.6,-176.31 -31.1,-353.1 28.83,-509.66 46.79,-122.24 154.17,-287.51 288.95,-286.61zm-34.51 -243.55c-630.67,172.6 -736.4,1160.92 -169.7,1698.44 557.01,528.32 1381.81,-31.73 1129.82,-974.35 -100.79,-377.05 -472.24,-857.6 -960.13,-724.09z"/>
   <path class="fil2" d="M4609.17 2354.15c-269.16,-2.65 -406.55,-433.9 -349.34,-758.44 46.31,-262.69 254.27,-629.03 483.7,-637.18 154.22,-157.98 685.16,101.65 564.52,761.16 -102.25,558.97 -575.62,751.24 -698.88,634.45zm941.19 -688.25c11.44,-329 -35.34,-594.02 -263.15,-805.23 -29.31,-27.18 -61.72,-55.55 -96.32,-77.24l-115.02 -72.03c-154.98,12.05 -569.31,-134.16 -899.34,435.59 -457.62,789.99 127.74,1803.96 864.22,1368.48 275.66,-163 435.6,-421.03 509.62,-849.58z"/>
   <path class="fil2" d="M1236.13 2333.28c258.74,-240.25 1109.92,516.56 802.8,1131.39 -61.63,123.36 -167.51,203.9 -307.45,220.29 -73.93,8.65 -130.72,4.73 -179.01,-29.18 -227.71,15.64 -498.48,-352.67 -572.34,-560.79 -50.12,-141.24 -75.22,-312.94 -32.3,-468.99 39.4,-143.24 137.45,-292.55 288.29,-292.71zm-12.35 -250.64c-469.9,89.59 -654.7,636.87 -443.95,1135.43 141.18,333.99 520.05,790.5 1041.91,686.53 456.02,-90.84 613.94,-641.9 425.47,-1127.15 -128.49,-330.82 -529.59,-788.96 -1023.43,-694.82z"/>
   <path class="fil1" d="M1552.48 3655.77c50.31,-3.61 65.4,21.26 139.77,-112.09 34.91,-62.6 57.5,-123.49 70.86,-198.02 62.82,-350.37 -99.1,-715.64 -347.63,-938.19 -98.14,-87.89 -47.89,-57.5 -179.35,-74.19 -150.84,0.16 -248.89,149.47 -288.29,292.71 -42.92,156.05 -17.82,327.75 32.3,468.99 73.86,208.13 344.62,576.44 572.34,560.79z"/>
   <path class="fil1" d="M6003.57 3686.04c33.56,-47.19 158.33,-133.81 247.94,-250.84 313.98,-410 266.37,-1014.42 19.73,-1102.58 -256.67,-6.63 -521.86,348.52 -597.91,582.56 -119.07,366.42 -22.86,717.56 330.24,770.86z"/>
   <path class="fil4" d="M4963.88 5853.06c382.31,-37.22 626.08,-239.41 672.42,-607.39 50.1,-397.8 -187.08,-687.75 -347.48,-918.52 -88.2,-126.92 -189.47,-233.67 -273.78,-365.88 -243.02,-381.13 -549.94,-847.78 -1055.79,-879.84l98.94 74.71c163.12,104.88 345.53,357.28 458.87,509.33 82.35,110.46 153.94,231.64 228.43,333.34 228.98,312.58 547.88,638.85 576.01,1095.25 24.29,394.01 -159.51,561.01 -357.63,758.99z"/>
   <path class="fil1" d="M4609.17 2354.15c246.28,-66.62 573.85,-788.81 271.39,-1279.68 -43.24,-70.18 -52.12,-91.85 -137.04,-115.94 -229.43,8.14 -437.39,374.49 -483.7,637.18 -57.21,324.53 80.19,755.78 349.34,758.44z"/>
   <path class="fil1" d="M2935.35 2368.61c130.03,-219.95 281.36,-366.37 204.32,-795.48 -25.14,-140.08 -72.51,-257 -132.51,-368.95l-171.32 -216.73c-62.02,-50.92 -0.65,-39.16 -96.08,-31.27 -134.78,-0.9 -242.16,164.37 -288.95,286.61 -59.94,156.56 -65.43,333.35 -28.83,509.66 57.32,276.15 251.46,564.16 513.37,616.16z"/>
   <path class="fil3" d="M4606.31 279.38c151.97,36.45 189.73,82.09 291.24,176.99 44.51,41.61 67.97,75.54 108.62,124.46 35.66,42.91 93.15,102.74 69.69,130.57l115.02 72.03c34.6,21.68 67.01,50.06 96.32,77.24 227.81,211.21 274.59,476.24 263.15,805.23 31.44,-40.78 12.19,21.17 34.21,-77.1 2.76,-12.29 1.82,-87.15 1.83,-87.9 152.4,27.37 315.15,32.76 447,106.88 -75.98,-292.94 -9.44,-653.65 -386.77,-1048.23 -276.14,-288.76 -883.25,-420.83 -1040.33,-280.17z"/>
   <path class="fil4" d="M2935.35 2368.61c495.79,148.98 773.37,-771.65 287.64,-1264.27 -64.89,-65.79 -97.7,-102.81 -202.12,-146.85 -62.39,-26.31 -152.3,-46.72 -222.75,-29.92 -70.93,16.92 -27.1,2.44 -58.36,28.61 95.43,-7.89 34.06,-19.65 96.08,31.27l171.32 216.73c60,111.95 107.37,228.88 132.51,368.95 77.04,429.11 -74.29,575.53 -204.32,795.48z"/>
   <path class="fil4" d="M4609.17 2354.15c123.25,116.79 596.62,-75.49 698.88,-634.45 120.64,-659.52 -410.3,-919.14 -564.52,-761.16 84.92,24.08 93.8,45.76 137.04,115.94 302.46,490.87 -25.12,1213.06 -271.39,1279.68z"/>
   <path class="fil5" d="M1552.48 3655.77c48.29,33.91 105.08,37.84 179.01,29.18 139.94,-16.38 245.82,-96.92 307.45,-220.29 307.11,-614.82 -544.06,-1371.64 -802.8,-1131.39 131.46,16.69 81.21,-13.7 179.35,74.19 248.53,222.55 410.45,587.82 347.63,938.19 -13.36,74.53 -35.94,135.42 -70.86,198.02 -74.37,133.35 -89.46,108.48 -139.77,112.09z"/>
   <path class="fil4" d="M6003.57 3686.04c371.52,14.61 647.97,-325.32 745.11,-606 63.15,-182.47 71.6,-416.66 -22.57,-578.29 -51.99,-89.24 -294.16,-300.92 -454.86,-169.12 246.63,88.16 294.25,692.57 -19.73,1102.58 -89.61,117.03 -214.38,203.65 -247.94,250.84z"/>
  </g>
 </g>
</svg>
