<svg viewBox="0 0 140 70" xmlns="http://www.w3.org/2000/svg" width="140" height="70" fill="none"><defs><linearGradient id="a" x1="9.711" x2="54.976" y1="24.405" y2="55.31" gradientUnits="userSpaceOnUse"><stop stop-color="#BF52E8" offset="0"/><stop stop-color="#FF9F1C" offset="1" stop-opacity=".106"/></linearGradient><linearGradient id="b" x1="28.837" x2="28.837" y1="19.053" y2="60.007" gradientUnits="userSpaceOnUse"><stop stop-color="#BF52E8" offset="0"/><stop stop-color="#FF9F1C" offset="1" stop-opacity=".403"/></linearGradient><linearGradient id="c" x1="32.682" x2="57.537" y1="14.599" y2="56.659" gradientUnits="userSpaceOnUse"><stop stop-color="#BF52E8" offset=".008"/><stop stop-color="#FF9F1C" offset="1"/></linearGradient><linearGradient id="d" x1="28.793" x2="28.793" y1="15.908" y2="62.669" gradientUnits="userSpaceOnUse"><stop stop-color="#BF52E8" offset=".008"/><stop stop-color="#FF9F1C" offset="1"/></linearGradient><linearGradient id="e" x1="78.817" x2="62.641" y1="30.414" y2="53.522" gradientUnits="userSpaceOnUse"><stop stop-color="#766CF5" offset="0"/><stop stop-color="#FF9F1C" offset="1" stop-opacity=".232"/></linearGradient><linearGradient id="f" x1="116.163" x2="99.988" y1="30.414" y2="53.522" gradientUnits="userSpaceOnUse"><stop stop-color="#766CF5" offset="0"/><stop stop-color="#FF9F1C" offset="1" stop-opacity=".232"/></linearGradient><linearGradient id="g" x1="97.755" x2="81.431" y1="31.055" y2="53.66" gradientUnits="userSpaceOnUse"><stop stop-color="#766CF5" offset="0"/><stop stop-color="#FF9F1C" offset="1" stop-opacity=".232"/></linearGradient><linearGradient id="h" x1="122.5" x2="25.5" y1="12" y2="70" gradientUnits="userSpaceOnUse"><stop stop-color="#FF9F1C" offset="0"/><stop stop-color="#766CF5" offset="1"/></linearGradient></defs><path d="M53.627 32.581q.222.582.406 1.168c1.578 5.004 1.118 10.116-.957 14.45-2.075 4.336-5.765 7.894-10.646 9.792q-.578.226-1.178.418c-5.462 1.758-11.236 1.173-16.156-1.194s-8.986-6.518-11.032-11.89a21 21 0 0 1-.406-1.167c-1.578-5.005-1.118-10.116.957-14.451s5.765-7.893 10.646-9.791q.578-.225 1.178-.419c5.462-1.757 11.236-1.172 16.155 1.195s8.987 6.518 11.033 11.89m.232 1.224a21 21 0 0 0-.403-1.158c-2.028-5.324-6.06-9.44-10.94-11.788s-10.606-2.93-16.022-1.187q-.595.192-1.167.415c-4.836 1.88-8.492 5.405-10.547 9.7-2.055 4.293-2.511 9.357-.948 14.314q.183.58.403 1.158c2.028 5.325 6.06 9.44 10.94 11.787 4.88 2.349 10.606 2.93 16.022 1.186q.595-.191 1.168-.414c4.835-1.88 8.49-5.406 10.546-9.7s2.511-9.357.948-14.314" fill="url(#a)"/><path d="M27.384 11.42q.796-.06 1.573-.06c5 0 9.496 1.829 12.832 4.888s5.515 7.35 5.88 12.276q.055.732.055 1.48c0 5.554-2.276 10.755-5.954 14.672s-8.76 6.553-14.372 6.978q-.796.06-1.573.06c-5.001 0-9.496-1.829-12.833-4.888s-5.514-7.35-5.88-12.276a20 20 0 0 1 .032-3.344.46.46 0 0 1-.326-.444c0-.246.19-.447.43-.462a21.2 21.2 0 0 1 2.296-7.064.551.551 0 0 1 .29-1.016q.136.002.249.06a22.5 22.5 0 0 1 2.377-3.273.372.372 0 0 1 .276-.616c.08 0 .155.027.215.071l.06-.064a23 23 0 0 1 2.307-2.14.372.372 0 0 1 .27-.62c.13 0 .244.067.31.169a22.4 22.4 0 0 1 4.5-2.639.37.37 0 0 1 .326-.541c.164 0 .303.109.35.26a21.4 21.4 0 0 1 6.31-1.467m-11.428 4.574v.014a.37.37 0 0 1-.474.355 23 23 0 0 0-2.337 2.162l-.076.081q.033.072.034.156a.37.37 0 0 1-.49.35 22.3 22.3 0 0 0-2.383 3.28.552.552 0 0 1-.516.915 21 21 0 0 0-2.285 7.018.46.46 0 0 1 .307.437c0 .24-.18.436-.41.461a20 20 0 0 0-.03 3.314c.361 4.876 2.517 9.124 5.82 12.153s7.755 4.838 12.708 4.838q.774 0 1.56-.059c5.566-.421 10.605-3.035 14.253-6.92s5.903-9.04 5.903-14.544q0-.745-.054-1.468c-.361-4.876-2.517-9.124-5.82-12.152-3.303-3.03-7.755-4.84-12.709-4.84q-.774 0-1.56.06a21.2 21.2 0 0 0-6.316 1.477.368.368 0 0 1-.55.23 22.2 22.2 0 0 0-4.575 2.682" fill="#011628"/><path d="M29.74 12.062a.457.457 0 0 1-.882.152 19.6 19.6 0 0 0-3.157.898c-4.532 1.717-7.964 4.998-9.916 9.05s-2.424 8.878-1.037 13.682q.217.749.494 1.496c1.96 5.28 5.855 9.435 10.569 11.885 4.712 2.449 10.243 3.192 15.473 1.65q.705-.209 1.379-.464c4.531-1.717 7.963-4.998 9.915-9.05 1.953-4.053 2.425-8.878 1.037-13.682a21.7 21.7 0 0 0-3.667-7.207.37.37 0 0 1-.372-.267.4.4 0 0 1-.001-.204 22.3 22.3 0 0 0-3.83-3.685l-.013.004a.367.367 0 0 1-.47-.36 22.5 22.5 0 0 0-2.71-1.661l-.098-.05a.364.364 0 0 1-.594-.176.4.4 0 0 1-.014-.125 22 22 0 0 0-3.784-1.392.544.544 0 0 1-1.014-.244 20.5 20.5 0 0 0-7.308-.25m-.917-.03a.458.458 0 0 1 .89-.153 20.6 20.6 0 0 1 7.355.248.544.544 0 0 1 1.047-.003.55.55 0 0 1 .012.258 22 22 0 0 1 3.776 1.388.366.366 0 0 1 .662.095.37.37 0 0 1-.007.23l.079.04q1.392.723 2.678 1.637a.366.366 0 0 1 .666.088.37.37 0 0 1-.075.347 22.5 22.5 0 0 1 3.769 3.626.364.364 0 0 1 .606.164.37.37 0 0 1-.149.412 21.9 21.9 0 0 1 3.658 7.219c1.401 4.85.924 9.721-1.047 13.814s-5.439 7.408-10.017 9.142q-.678.258-1.391.468c-5.277 1.556-10.856.807-15.608-1.663s-8.68-6.66-10.657-11.984a21 21 0 0 1-.497-1.51c-1.401-4.85-.924-9.72 1.047-13.814s5.439-7.407 10.017-9.142a19.5 19.5 0 0 1 3.186-.907" fill="#011628" fill-rule="evenodd"/><path d="M48.619 33.158q.222.582.406 1.168c1.578 5.004 1.118 10.116-.957 14.45-2.075 4.335-5.765 7.894-10.646 9.792q-.578.226-1.178.418c-5.462 1.758-11.236 1.172-16.156-1.195s-8.986-6.517-11.032-11.889a21 21 0 0 1-.407-1.168c-1.578-5.004-1.117-10.116.958-14.45 2.075-4.335 5.765-7.893 10.646-9.792q.578-.226 1.178-.418c5.462-1.758 11.236-1.173 16.155 1.195 4.92 2.367 8.986 6.517 11.033 11.889m.232 1.224a21 21 0 0 0-.403-1.158c-2.028-5.325-6.061-9.44-10.94-11.788-4.88-2.348-10.606-2.929-16.022-1.186q-.595.192-1.168.415c-4.836 1.88-8.49 5.405-10.546 9.7-2.056 4.293-2.511 9.356-.948 14.314q.182.58.402 1.157c2.029 5.325 6.061 9.44 10.941 11.788s10.606 2.93 16.021 1.186q.595-.192 1.168-.414c4.836-1.881 8.491-5.406 10.547-9.7 2.055-4.294 2.511-9.357.948-14.314" fill="url(#b)"/><ellipse rx="24.183" ry="22.685" cx="31.183" cy="35.685" fill="#011628" fill-opacity=".615"/><path d="M32.688 14.64c4.704.292 9.05 2.108 12.57 4.945a.36.36 0 0 1 .255-.105.37.37 0 0 1 .308.573 24 24 0 0 1 1.878 1.805c3.842 4.122 6.218 9.636 6.218 15.564q0 .667-.04 1.33c-.327 5.379-2.627 10.097-6.18 13.47s-8.361 5.403-13.701 5.403q-.651 0-1.32-.041c-5.862-.364-11.17-3.095-15.011-7.218s-6.218-9.637-6.218-15.565q0-.666.04-1.328c.306-5.023 2.331-9.47 5.49-12.783a.372.372 0 0 1 .26-.633c.101 0 .193.042.26.109l.17-.165c3.555-3.373 8.362-5.402 13.701-5.402q.652 0 1.32.041m12.996 5.539a.37.37 0 0 1-.523-.435c-3.493-2.822-7.811-4.63-12.484-4.92q-.656-.04-1.309-.04c-5.291 0-10.054 2.01-13.574 5.352l-.203.195q.013.046.013.097a.37.37 0 0 1-.463.358c-3.148 3.286-5.167 7.704-5.47 12.698q-.04.649-.04 1.317c0 5.88 2.357 11.349 6.167 15.438 3.811 4.09 9.076 6.8 14.89 7.16q.656.04 1.308.04c5.291 0 10.054-2.01 13.575-5.351s5.8-8.017 6.123-13.348q.04-.65.04-1.318c0-5.879-2.357-11.348-6.168-15.437a23 23 0 0 0-1.882-1.806" fill="url(#c)"/><path d="M28.906 15.968q.796-.06 1.573-.06c5 0 9.495 1.828 12.832 4.888s5.514 7.35 5.88 12.276q.054.733.054 1.48c0 5.554-2.275 10.755-5.953 14.672s-8.76 6.553-14.373 6.977q-.795.06-1.573.06c-5 0-9.495-1.828-12.832-4.887-3.337-3.06-5.514-7.35-5.88-12.276a20 20 0 0 1 .031-3.344.46.46 0 0 1-.325-.444c0-.246.19-.447.43-.462a21.2 21.2 0 0 1 2.296-7.064.552.552 0 0 1 .29-1.016q.136 0 .248.06a22.5 22.5 0 0 1 2.378-3.273.37.37 0 0 1 .276-.616c.08 0 .155.027.215.071l.06-.065a22.6 22.6 0 0 1 7.387-5.229.373.373 0 0 1 .326-.541c.164 0 .303.109.35.259a21.4 21.4 0 0 1 6.31-1.466m-6.303 1.662a.368.368 0 0 1-.551.23 22.4 22.4 0 0 0-7.386 5.213l-.075.081q.033.072.034.156a.37.37 0 0 1-.49.35 22.3 22.3 0 0 0-2.383 3.28.551.551 0 0 1-.516.915 21 21 0 0 0-2.285 7.018.46.46 0 0 1 .306.437c0 .24-.179.436-.409.461a20 20 0 0 0-.03 3.314c.36 4.876 2.516 9.124 5.82 12.152 3.303 3.03 7.755 4.839 12.708 4.839q.774 0 1.56-.06c5.566-.42 10.605-3.034 14.253-6.92 3.647-3.883 5.903-9.038 5.903-14.544q0-.743-.054-1.467c-.362-4.876-2.517-9.124-5.82-12.153s-7.756-4.838-12.71-4.838q-.773 0-1.559.059a21.2 21.2 0 0 0-6.316 1.477" fill="url(#d)"/><g fill="#FF9F1C"><path d="M34.96 21.555c1.903 0 3.625.802 4.872 2.097a7.25 7.25 0 0 1 2.014 5.044c0 1.487-.44 2.868-1.19 4.013a7 7 0 0 1-2.891 2.51v1.415h-5.61v-1.416a6.95 6.95 0 0 1-2.544-2.027l.656-.654a6 6 0 0 0 2.517 1.949l.289.117v1.104h1.543v-3.728q0-.037.007-.072a.35.35 0 0 1 .04-.236l1.7-2.984-1.236.679a.34.34 0 0 1-.331.002l-1.266-.695.705 1.277a.35.35 0 0 1-.133.47.34.34 0 0 1-.467-.134l-1.28-2.32a.35.35 0 0 1 .133-.47.34.34 0 0 1 .34.003l2.132 1.17 2.141-1.175a.34.34 0 0 1 .465.139.35.35 0 0 1-.011.35L35.3 31.937l.003.042v3.728h1.543v-1.104l.289-.117a6.04 6.04 0 0 0 2.756-2.288 6.37 6.37 0 0 0 1.036-3.502c0-1.72-.67-3.275-1.752-4.399-1.079-1.121-2.57-1.814-4.216-1.814s-3.138.693-4.217 1.814a6.33 6.33 0 0 0-1.751 4.4v.018a1.8 1.8 0 0 0-.423.315l-.453.45a8 8 0 0 1-.042-.784 7.26 7.26 0 0 1 2.013-5.044c1.247-1.295 2.97-2.097 4.873-2.097m5.344 13.386a.455.455 0 0 1 .625.168.465.465 0 0 1-.166.632l-1.466.855a.455.455 0 0 1-.626-.168.465.465 0 0 1 .167-.632zm-.18 2.688c.23.107.33.38.225.612a.455.455 0 0 1-.605.229l-.688-.318a.464.464 0 0 1-.226-.612.455.455 0 0 1 .606-.228zm-9.106-1.542a.465.465 0 0 1 .104.645.454.454 0 0 1-.637.105l-.688-.5a.465.465 0 0 1-.104-.644.454.454 0 0 1 .638-.105zm-.202 1.44a.463.463 0 0 1 .255.887l-1.625.48a.457.457 0 0 1-.566-.315.463.463 0 0 1 .312-.572zm3.661 4.758h-.028c-.631 0-1.205-.198-1.62-.516s-.674-.757-.674-1.24v-2.842h5.61v2.841q0 .048-.004.095l-.268-.267a1.82 1.82 0 0 0-2.592.021 1.87 1.87 0 0 0-.424 1.908"/><path d="m26.34 32.551 2.873-2.861a.91.91 0 0 1 1.293.01c.355.365.35.95-.01 1.308l-4.018 4v4.488a.4.4 0 0 1-.011.097l.814 6.275a.92.92 0 0 1-.789 1.036.916.916 0 0 1-1.025-.797l-.803-6.19h-.647l-.761 6.183a.92.92 0 0 1-1.022.807.925.925 0 0 1-.8-1.032l.87-7.053q.002-.025.007-.05v-3.57l-2.239 2.058a.91.91 0 0 1-1.294-.061.93.93 0 0 1 .061-1.308l3.488-3.206.044-.039a.42.42 0 0 1 .356-.202h3.334c.107 0 .204.04.278.107m-1.986-3.932c.962 0 1.742.788 1.742 1.76 0 .973-.78 1.76-1.742 1.76a1.75 1.75 0 0 1-1.743-1.76c0-.972.78-1.76 1.743-1.76m15.37 15.259-2.874-2.861a.91.91 0 0 0-1.294.01.93.93 0 0 0 .01 1.308l4.019 4v4.488q0 .05.01.097l-.813 6.275a.93.93 0 0 0 .331.837q.743-.228 1.464-.498a1 1 0 0 0 .019-.1l.803-6.19h.647l.661 5.374q.89-.434 1.734-.932l-.681-5.537-.008-.05v-3.57l2.239 2.058a.91.91 0 0 0 1.293-.062.93.93 0 0 0-.06-1.307l-3.488-3.207-.045-.038a.42.42 0 0 0-.356-.203H40a.4.4 0 0 0-.278.108m1.985-3.932c-.962 0-1.742.788-1.742 1.76s.78 1.76 1.742 1.76 1.742-.788 1.742-1.76-.78-1.76-1.742-1.76"/><path d="M43.335 43.77H40a.4.4 0 0 0-.278.108l-2.874-2.861a.91.91 0 0 0-1.294.01.93.93 0 0 0 .011 1.308l4.018 4v4.488a.42.42 0 0 0 .416.421h3.334a.42.42 0 0 0 .417-.42v-4.295l2.239 2.058a.91.91 0 0 0 1.294-.062.93.93 0 0 0-.061-1.307l-3.488-3.207-.045-.038a.42.42 0 0 0-.355-.203m-1.627-3.824c-.962 0-1.742.788-1.742 1.76s.78 1.76 1.742 1.76 1.742-.788 1.742-1.76-.78-1.76-1.742-1.76" fill-rule="evenodd"/></g><path d="M65.813 44.741v-4.21h1.892V29.529h-1.892v-4.21h8.583c3.49 0 6.15.829 7.97 2.482q2.73 2.484 2.731 7.254-.001 4.76-2.72 7.22-2.722 2.467-7.993 2.466zm8.038-4.085h.654q2.076 0 2.978-1.3c.597-.866.895-2.315.895-4.338q0-3.025-.895-4.319-.903-1.294-2.978-1.295h-.654z" fill="url(#e)"/><path d="M103.159 44.741v-4.21h1.893V29.529h-1.893v-4.21h8.583q5.238.001 7.97 2.482 2.731 2.484 2.732 7.254-.001 4.76-2.72 7.22-2.723 2.467-7.994 2.466zm8.038-4.085h.654q2.076 0 2.978-1.3c.597-.866.896-2.315.896-4.338q0-3.025-.896-4.319-.902-1.294-2.978-1.295h-.654z" fill="url(#f)"/><path d="M90.09 45.07q-2.5 0-3.979-1.3-1.479-1.299-1.48-3.517 0-3.424 3.962-5.149-.718-.899-1.074-1.799a5.3 5.3 0 0 1-.354-1.963q0-1.62.7-2.797a4.7 4.7 0 0 1 1.987-1.828q1.285-.648 3.004-.646 2.31-.002 3.66 1.198c.902.798 1.348 1.881 1.348 3.247q.001 2.533-2.059 3.998l2.231 2.254 1.577-2.103h-1.21V30.83h5.69v3.835h-.768l-3.404 4.008 1.839 1.858h1.453v4.21c-2.64 0-3.504.006-6.15.006l-1.484-1.689q-1.201 1.042-2.55 1.525-1.352.489-2.94.487m3.81-12.48q.48-.328.702-.704.246-.424.245-1.014c0-.389-.112-.708-.346-.957a1.17 1.17 0 0 0-.888-.372q-.471 0-.785.319t-.314.785c0 .856.822 1.372 1.387 1.943m-3.634 6.788q.001.803.551 1.337.554.534 1.38.535.753-.002 1.452-.384l-2.796-3.165q-.586.66-.587 1.677" fill="url(#g)"/><path d="m48.776 59.257-.05-.486a.28.28 0 0 1 .136-.25q.704-.474 1.989-.786a4.4 4.4 0 0 1 .876-.112q1.754 0 2.532 2.17.272.775.272 1.635 0 1.298-.68 2.62-.678 1.323-1.395 2.134-.395.424-.84.424a.8.8 0 0 1-.691-.35q-.247-.349-.247-.891t.197-1.217.618-.848a3 3 0 0 0-.062.605q0 .318.216.78t.513.462.481-.35q.766-1.397.766-3.181 0-2.122-1.1-2.745a1.3 1.3 0 0 0-.617-.175q-.296 0-.642.175.099.535.099 1.353 0 .817-.278 2.608-.278 1.79-.278 2.726v.4q0 .324-.148.424a.55.55 0 0 1-.309.1q-.457 0-.642-1.71-.074-.686-.123-.923a.4.4 0 0 1 .11-.012q.223 0 .52.324v-.325q-.013-.985.259-3.593a4 4 0 0 0 .012-.368q0-.268-.05-.555a4 4 0 0 0-.345.262q-.606.5-.858.499-.254 0-.254-.437zm9.67 5.415q0 1.897-1.902 1.897-.79 0-1.155-.412-.364-.412-.636-1.26a2.4 2.4 0 0 1-.099-.693q0-.367.327-.985.329-.618.723-1.08.05-.686.309-.686.135 0 .185.162.26-.237.63-.461t.667-.225.611.35.315.717T57.914 63q-.95 1.198-1.494 1.198-.395 0-.617-.661l-.118.206q-.105.18-.148.268l-.117.237a1.3 1.3 0 0 0-.123.511q0 .513.506.512.84 0 1.426-.355.587-.355 1.167-1.08.05.55.05.836m-2.014-1.51q.198 0 .587-.486.39-.486.389-.668 0-.18-.13-.18-.129 0-.444.324t-.5.561q-.025.15-.025.225 0 .225.123.225m5.027-2.457q.321 0 .765.255.445.255.445.6a.87.87 0 0 1-.266.617q-.265.274-.599.274-.506 0-.704-.474-.024-.075-.08-.075t-.407.15q-.353.15-.476.212-.123.063-.123.119t.172.143q2.199.599 2.199 1.834 0 .437-.34.905-.339.468-.957.767-.618.3-1.185.3-.57 0-.797-.312t-.228-.899q0-.586.407-.873.543-.362.89-.362.086 0 .086.044 0 .043-.192.156a2.2 2.2 0 0 0-.407.324q-.216.213-.216.343t.296.131q.79 0 1.556-.449.173-.087.173-.206 0-.118-.26-.243a14 14 0 0 0-.87-.362 14 14 0 0 1-.963-.405.57.57 0 0 1-.352-.556q0-.111.055-.318.056-.205.068-.28.061-.437.39-.6.326-.162 1.413-.673.186-.087.507-.087m3.865-2.97q0 .412-.346 1.142-.345.73-.654 1.054a.17.17 0 0 1-.148.075q-.31 0-.31-.5 0-.498.433-1.397.087-.186.111-.386t.031-.231l.012-.05.013-.05.012-.05a.2.2 0 0 1 .043-.069q.037-.025.198-.025.16 0 .383.138.222.137.222.35m.124 5.54q.136-.213.19-.212.057 0 .087.312.031.312.031.83 0 .517-.24 1.11a2.3 2.3 0 0 1-.698.954q-.26.2-.476.2a.64.64 0 0 1-.358-.094.8.8 0 0 1-.253-.305 4.5 4.5 0 0 1-.364-.774 2.9 2.9 0 0 1-.18-1.023q0-.549.087-1.11.087-.562.087-.755 0-.194-.198-.5-.198-.305-.198-.367 0-.063.044-.131a1 1 0 0 1 .11-.137 1 1 0 0 1 .137-.12q.067-.048.154-.124.284-.237.519-.237.234 0 .413.162.18.162.173.562-.006.4-.191 1.51-.235 1.422-.235 1.634t.111.212q.247 0 1.248-1.597m1.963 4.966.025-.138q0-.1.074-.13a.9.9 0 0 0 .247-.156q.173-.126.29-.125.117 0 .198.037a.3.3 0 0 0 .105.037q.135 0 .135-.511.062-1.211.235-2.857a9 9 0 0 1-.939 1.216q-.58.643-.926.643t-.568-.312a2.3 2.3 0 0 1-.407-1.348q0-1.122 1.173-2.445.407-.45.611-.643l.636-.599q.432-.405.778-.405t.531.25a.93.93 0 0 1 .185.567q0 .318-.148.867a.2.2 0 0 1 .099.181q0 .119-.025.244-.555 3.518-.623 4.616a30 30 0 0 0-.068 1.734l.012.662a.4.4 0 0 1-.086.268.27.27 0 0 1-.223.106q-.135 0-.45-.243-.315-.244-.6-.244l-.283.025q-.15 0-.149-.137zm1.47-5.927a.8.8 0 0 0 .061-.287q0-.137-.098-.137a.2.2 0 0 0-.087.025 4.4 4.4 0 0 0-1.284.96q-.556.6-.828 1.336a.9.9 0 0 0-.049.262q0 .25.185.25a.44.44 0 0 0 .222-.076 5 5 0 0 0 1.075-1.023q.506-.636.803-1.31m5.495 1.235q0 .612-.062 1.061t-.444 1.204q-.384.755-.754.755-.16 0-.308-.175-.73-.886-.73-1.684 0-.237.162-1.086.222-1.272.222-1.416t-.044-.143-.092.1a5.7 5.7 0 0 0-.519 1.303 9 9 0 0 0-.26 1.23 37 37 0 0 0-.135 1.397q0 .312-.16.312-.075 0-.247-.138-.667-.573-.667-1.572 0-.423.08-1.172.08-.75.093-1.036.135-1.734.333-1.734.112 0 .16.243.05.243.05.549t.019.555q.018.25.092.25.075 0 .21-.4.136-.399.401-.804.266-.406.575-.406t.543.137q.531.275.531 1.148 0 .3-.074.736-.075.437-.13.955-.055.517-.055.586t.05.069q.098 0 .5-.5.4-.498.549-.498.111 0 .111.174m5.421 1.123q-1.013 1.835-1.543 1.835-.383 0-.692-.475a2 2 0 0 1-.185-.393 2.6 2.6 0 0 0-.24-.492q-.144-.225-.143-.606 0-.38.148-.68 1.013-2.02 2.137-2.77a.56.56 0 0 1 .345-.112q.198 0 .494.225.174.174.21.3.063.274.062.336.432.15.432.55 0 .273-.148 1.24a16 16 0 0 0-.173 1.442q0 .261.173.262.198 0 .71-.699.513-.699.587-.699.123 0 .123.412l-.024.612q0 .348-.31.954-.307.605-.79.605a.59.59 0 0 1-.469-.2 2 2 0 0 1-.185-.249q-.382-.561-.519-1.398m.111-2.882q-1.556 1.435-1.975 3.282 1.247-1.086 1.975-3.282m6.46 1.76q0 .61-.063 1.06-.062.449-.444 1.204-.383.755-.754.755-.16 0-.308-.175-.729-.886-.729-1.684 0-.237.16-1.086.223-1.272.223-1.416t-.043-.143-.093.1a5.7 5.7 0 0 0-.519 1.303 9 9 0 0 0-.259 1.23q-.062.498-.136 1.397 0 .312-.16.312-.075 0-.247-.138-.667-.573-.667-1.572 0-.423.08-1.172.08-.75.093-1.036.135-1.734.333-1.734.112 0 .16.243.05.243.05.549t.019.555q.018.25.092.25.075 0 .21-.4.136-.399.402-.804.265-.406.574-.406t.543.137q.531.275.531 1.148 0 .3-.074.736-.075.437-.13.955-.055.517-.055.586t.05.069q.098 0 .5-.5.4-.498.549-.498.111 0 .111.174m4.717.998.037.648q0 .687-.359.687-.284 0-.494-.3t-.32-.543a12 12 0 0 0-.223-.461 3 3 0 0 1-.198-.518l-.074.262-.098.337a6 6 0 0 1-.229.73q-.08.18-.173.4a1.7 1.7 0 0 1-.191.348 4 4 0 0 1-.21.256.68.68 0 0 1-.537.262q-.315 0-.612-.362-.506-.599-.74-1.497a3 3 0 0 1-.112-.86q0-.488.297-1.08.296-.593.889-1.304.592-.711 1.099-.711.272 0 .617.262.075-.673.247-1.909a50 50 0 0 0 .21-1.616q.038-.38.266-.38t.333.243.105.48-.037.437q-.346 3.57-.346 5.802 0 .337.186.337.185 0 .401-.293.216-.294.284-.294t.068.1zm-1.952-2.384q0-.15-.142-.15-.141 0-.34.126-.642.36-1.055 1.123-.414.76-.414 1.522 0 .46.284.461.111 0 .247-.137.692-.735 1.37-2.72a.6.6 0 0 0 .05-.225m4.644-2.907-.05-.486a.28.28 0 0 1 .136-.25q.704-.474 1.988-.786.53-.112.877-.112 1.754 0 2.532 2.17.27.775.271 1.635 0 1.298-.679 2.62-.68 1.323-1.395 2.134-.396.424-.84.424a.8.8 0 0 1-.692-.35q-.247-.349-.247-.891t.198-1.217.617-.848a3 3 0 0 0-.061.605q0 .318.216.78t.512.462.482-.35q.765-1.397.765-3.181 0-2.122-1.099-2.745a1.3 1.3 0 0 0-.617-.175q-.297 0-.642.175.099.536.098 1.353 0 .818-.277 2.608-.278 1.79-.278 2.726v.4q0 .324-.148.424a.55.55 0 0 1-.31.1q-.456 0-.641-1.71-.075-.686-.124-.923a.4.4 0 0 1 .111-.012q.222 0 .519.324v-.324q-.013-.986.26-3.594.011-.1.012-.368 0-.269-.05-.555-.086.05-.346.262-.605.5-.858.499-.253 0-.253-.437zm9.669 5.415q0 1.897-1.902 1.897-.79 0-1.155-.412-.363-.411-.635-1.26a2.4 2.4 0 0 1-.1-.693q0-.367.328-.985.327-.618.722-1.08.05-.686.309-.686.137 0 .186.162.258-.236.629-.461t.667-.225q.297 0 .612.35.314.349.314.717T102.915 63q-.951 1.198-1.494 1.198-.395 0-.618-.661a6 6 0 0 1-.117.206 5 5 0 0 0-.265.505 1.3 1.3 0 0 0-.124.512q0 .51.506.511.84 0 1.427-.355t1.167-1.08q.05.55.049.836m-2.013-1.51q.198 0 .587-.486t.389-.668q0-.18-.13-.18t-.445.324q-.314.324-.5.561a2 2 0 0 0-.024.225q0 .225.123.225m2.532-2.57.592-.05q.42 0 .865.425.235.225.235.436 0 .387-.655 3.12a1 1 0 0 0-.025.224q0 .1.05.1t.16-.112q.396-.5.556-.986l.235-.717q.073-.23.135-.655l.087-.6q.037-.236.136-1.272.036-.237.142-.237t.142.187q.26 1.423.259 2.895 0 1.472-.679 2.495-.346.55-.791.55a.7.7 0 0 1-.358-.1q-.481-.225-.765-.811a2.66 2.66 0 0 1-.284-1.173q0-.412.092-.743.093-.33.179-.617.136-.45.136-.568 0-.119-.228-.218-.229-.1-.297-.268a6 6 0 0 1-.191-.662q-.123-.492-.124-.58 0-.087.087-.087zm7.076 4.08q0 1.897-1.902 1.897-.79 0-1.155-.412-.364-.411-.636-1.26a2.4 2.4 0 0 1-.098-.693q0-.367.327-.985t.722-1.08q.05-.686.309-.686.136 0 .185.162.26-.236.63-.461t.667-.225q.296 0 .611.35.315.349.315.717T110.51 63q-.951 1.198-1.494 1.198-.396 0-.618-.661a6 6 0 0 1-.117.206q-.106.18-.148.268l-.118.237a1.3 1.3 0 0 0-.123.512q0 .51.506.511.84 0 1.427-.355t1.167-1.08q.049.55.049.836m-2.013-1.51q.198 0 .586-.486.39-.486.389-.668 0-.18-.129-.18-.13 0-.445.324-.314.324-.5.561-.025.15-.025.225 0 .225.124.225m3.396-5.639-.062-.374q0-.15.161-.15.061 0 .16.025.741.15.741.86 0 .175-.037.382a58 58 0 0 0-.142.854q-.105.65-.154.936l-.124.86a25 25 0 0 0-.296 3.632q0 .36.173.361.061 0 .136-.074.864-1.099 1.006-1.342t.21-.243.068.168-.068.637-.08.599a2 2 0 0 1-.056.293 5 5 0 0 1-.074.256q-.031.094-.13.262a3 3 0 0 1-.135.218q-.26.35-.414.543t-.358.193-.389-.187a1.6 1.6 0 0 1-.266-.337q-.08-.15-.228-.462a3.9 3.9 0 0 1-.433-1.784q0-.798.18-1.959.178-1.16.216-1.447-.285 0-.284-.25 0-.099.031-.193l.228-.692q.42-1.21.42-1.585m5.014 5.852q0 1.509-.865 2.682-.309.4-.685.4t-.599-.188q-.803-.673-.803-2.308 0-1.136.605-2.895a.4.4 0 0 1 .087-.156q.037-.03.13-.03.092 0 .228-.132.136-.13.451-.13t.636.236q.32.237.469.637.346.936.346 1.884m-1.025-.811q0-1.148-.284-1.148-.136 0-.247.212-.495 1.185-.494 2.832 0 .413.012.624 1.013-.786 1.013-2.52m1.803.722.012-.212a.8.8 0 0 0-.191-.543q-.192-.217-.192-.28t.081-.1a.7.7 0 0 1 .179-.056q.098-.02.197-.15.1-.13.161-.555t.061-.605.112-.181a.3.3 0 0 1 .197.075q.087.075.13.143.043.069.105.206t.086.175q.408-.138.68-.138.703 0 1.216.693.512.693.512 1.416 0 .262-.061.599-.384 1.672-1.186 2.296-.272.225-.494.224a.46.46 0 0 1-.37-.18 1.1 1.1 0 0 1-.21-.469 5.6 5.6 0 0 1-.111-1.185q0-.674.148-.674.025 0 .129.325.106.324.328.324t.333-.224q.198-.35.383-.88.186-.53.185-.824 0-.293-.271-.293a.9.9 0 0 0-.358.088q-.766.312-1.013 1.41-.432 1.946-.432 3.393 0 .686.074 1.136l.037.287q0 .15-.124.287-.123.137-.271.137-.396 0-.396-1.872 0-1.172.334-3.793m7.718 1.398.099-2.583q0-.15-.025-.15-.05 0-.111.2-.222.574-1.037 3.58-.124.438-.26.438-.061 0-.222-.1-.63-.462-.63-1.136 0-.536.173-1.46.198-1.147.198-1.24 0-.094-.031-.094-.032 0-.093.124-.63 1.522-.765 3.631-.025.374-.247.374-.297 0-.531-.349a2.4 2.4 0 0 1-.433-1.397q0-.487.118-1.236l.142-.91q.21-1.31.382-1.31.136 0 .21.355.075.356.074.518 0 .162.05.162.135 0 .272-.293.135-.293.333-.587.198-.293.488-.293t.537.219a.93.93 0 0 1 .309.53q.148-.213.494-.587.185-.261.376-.262.192 0 .562.188.507.261.507 1.372 0 1.11-.074 1.909v.087q0 .188.074.188.111 0 .543-.63t.531-.63q.173 0 .173.891 0 .893-.63 1.778-.297.412-.506.412l-.136-.037q-.494-.263-.704-.6t-.21-1.072m6.101-.013q0 1.897-1.902 1.897-.79 0-1.155-.412t-.636-1.26a2.4 2.4 0 0 1-.099-.693q0-.367.328-.985.327-.618.722-1.08.05-.686.309-.686.135 0 .185.162a4 4 0 0 1 .63-.461q.37-.225.667-.225.296 0 .611.35.315.349.315.717T131.504 63q-.95 1.198-1.495 1.198-.395 0-.617-.661a6 6 0 0 1-.117.206 6 6 0 0 0-.266.505 1.3 1.3 0 0 0-.123.512q0 .51.506.511.84 0 1.426-.355t1.167-1.08q.05.55.05.836m-2.013-1.51q.197 0 .586-.486.39-.486.389-.668 0-.18-.13-.18-.129 0-.444.324t-.5.561q-.025.15-.025.225 0 .225.124.225m6.594.387q0 .613-.062 1.06-.061.45-.444 1.205t-.754.755q-.16 0-.308-.175-.729-.886-.729-1.684 0-.237.161-1.086.222-1.272.222-1.416t-.043-.143-.093.1a5.7 5.7 0 0 0-.519 1.303 9 9 0 0 0-.259 1.23q-.061.498-.136 1.397 0 .312-.16.312-.075 0-.247-.138-.667-.573-.667-1.572 0-.424.08-1.173.081-.748.093-1.035.135-1.734.333-1.734.111 0 .161.243t.049.549q0 .306.019.555.018.25.092.25.075 0 .21-.4.137-.399.402-.804.265-.406.574-.406t.543.137q.531.275.531 1.148 0 .3-.074.736-.074.437-.129.955-.056.517-.056.586t.049.069q.1 0 .5-.5.402-.498.55-.498.111 0 .111.174m2.025-2.72.976-.05q.383 0 .383.5 0 .248-.161.374-.395.361-1.358.499-.123 1.185-.123 1.971t.111.786q.074 0 .518-.399.445-.4.494-.4.21 0 .21.643t-.234 1.267q-.235.624-.667.624a.64.64 0 0 1-.371-.131 1.2 1.2 0 0 1-.278-.262 11 11 0 0 1-.259-.393 8 8 0 0 0-.204-.312q-.333-.462-.364-.917-.031-.456-.031-1.067t.074-1.323a.9.9 0 0 1-.636-.274 1.9 1.9 0 0 1-.395-.63q-.142-.369-.142-.418 0-.162.185-.162l1.186.075q.062-.387.197-1.073.21-1 .21-1.16l-.024-.238q0-.2.222-.2t.543.225.321.424q0 .087-.086.35-.111.399-.297 1.671" fill="#FF9F1C"/><path d="M.688 0H140v35.516h-1.376V1.39H1.376v67.218h27.011V70H0V0z" fill="url(#h)"/></svg>
